<svg xmlns="http://www.w3.org/2000/svg" width="72" height="72" viewBox="0 0 72 72"><defs><style>.a,.c{fill:none;}.b{fill:#fff;}.c,.d{stroke:#000;stroke-linejoin:round;stroke-width:3px;}.d{fill:#4ac6fd;stroke-linecap:round;}</style></defs><g transform="translate(-104 -1039)"><rect class="a" width="72" height="72" transform="translate(104 1039)"/><g transform="translate(0.352)"><path class="b" d="M4,0H36a4,4,0,0,1,4,4V49a0,0,0,0,1,0,0H0a0,0,0,0,1,0,0V4A4,4,0,0,1,4,0Z" transform="translate(120 1051)"/><path class="b" d="M4,0H36a4,4,0,0,1,4,4V31a0,0,0,0,1,0,0H0a0,0,0,0,1,0,0V4A4,4,0,0,1,4,0Z" transform="translate(107 1069)"/><path class="b" d="M4,0H36a4,4,0,0,1,4,4V31a0,0,0,0,1,0,0H0a0,0,0,0,1,0,0V4A4,4,0,0,1,4,0Z" transform="translate(133 1069)"/><g transform="translate(801.658 -129.523)"><path class="c" d="M-637.662,1185.1h4.7a3.343,3.343,0,0,1,3.342,3.342v44.737" transform="translate(-12.503 -3.692)"/><path class="c" d="M-678.11,1233.182v-44.737a3.343,3.343,0,0,1,3.342-3.342h4.7" transform="translate(-3.783 -3.692)"/><path class="c" d="M-658.612,1244.715V1238.6h9.177v6.118" transform="translate(-7.987 -15.225)"/><line class="c" x2="7.647" transform="translate(-672.716 1195.368)"/><line class="c" x2="7.647" transform="translate(-672.716 1208.885)"/><line class="c" x2="7.647" transform="translate(-658.951 1195.368)"/><line class="c" x2="7.647" transform="translate(-658.951 1208.885)"/><path class="c" d="M-613.65,1237.806v-27.913a3.342,3.342,0,0,0-3.342-3.342h-10.423" transform="translate(-14.712 -8.316)"/><line class="c" x1="4.588" transform="translate(-691.07 1204.352)"/><line class="c" x1="4.588" transform="translate(-691.07 1213.862)"/><line class="c" x1="4.588" transform="translate(-691.07 1223.372)"/><line class="c" x1="4.588" transform="translate(-637.539 1204.352)"/><line class="c" x1="4.588" transform="translate(-637.539 1213.862)"/><line class="c" x1="4.588" transform="translate(-637.539 1223.372)"/><path class="c" d="M-695.658,1237.806v-27.913a3.342,3.342,0,0,1,3.342-3.342h10.422" transform="translate(0 -8.316)"/><path class="d" d="M-651.805,1172.564v-4.588h-6.118v4.588h-4.588v6.118h4.588v4.589h6.118v-4.589h4.588v-6.118Z" transform="translate(-7.146 3)"/></g></g></g></svg>