<svg xmlns="http://www.w3.org/2000/svg" width="90" height="90" viewBox="0 0 90 90"><defs><style>.a{fill:#1ec250;fill-rule:evenodd;}.b{fill:#fff;}.c{fill:#12b225;}</style></defs><path class="a" d="M419.024,246.235a45,45,0,1,1-14.65-9.8A45,45,0,0,1,419.024,246.235Z" transform="translate(-342.171 -233.021)"/><g transform="translate(21.16 24.4)"><path class="b" d="M403.66,266.844c0-10.669-10.7-19.348-23.842-19.348s-23.84,8.679-23.84,19.348c0,9.565,8.481,17.574,19.939,19.087.776.168,1.833.513,2.1,1.176a4.894,4.894,0,0,1,.076,2.156s-.279,1.682-.339,2.041c-.1.6-.479,2.357,2.065,1.285s13.73-8.085,18.733-13.842h0c3.456-3.789,5.111-7.634,5.111-11.9" transform="translate(-355.977 -247.496)"/><path class="c" d="M368.149,255.944h-1.672a.464.464,0,0,0-.465.464V266.8a.464.464,0,0,0,.465.462h1.672a.463.463,0,0,0,.465-.462V256.408a.464.464,0,0,0-.465-.464" transform="translate(-349.152 -241.751)"/><path class="c" d="M377.948,255.944h-1.672a.462.462,0,0,0-.464.464v6.171l-4.761-6.43a.47.47,0,0,0-.037-.045l0-.005-.029-.027-.008-.008-.025-.022-.012-.008-.024-.017-.015-.008-.023-.013-.015-.007-.027-.012-.015,0-.029-.01-.015,0-.027-.007-.02,0-.023,0-.024,0h-1.688a.464.464,0,0,0-.465.464V266.8a.464.464,0,0,0,.465.462h1.672a.464.464,0,0,0,.465-.462v-6.171l4.765,6.438a.508.508,0,0,0,.118.114l.005,0,.029.017.014.008.023.01.022.01.013,0,.032.01.007,0a.465.465,0,0,0,.119.015h1.672a.464.464,0,0,0,.465-.462V256.408a.464.464,0,0,0-.465-.464" transform="translate(-347.441 -241.751)"/><path class="c" d="M367.777,264.658h-4.545v-8.249a.464.464,0,0,0-.464-.465H361.1a.465.465,0,0,0-.464.465V266.8a.468.468,0,0,0,.129.321l.007.007.007.005a.462.462,0,0,0,.321.131h6.682a.466.466,0,0,0,.464-.465v-1.672a.465.465,0,0,0-.464-.465" transform="translate(-352.811 -241.751)"/><path class="c" d="M382.524,258.545a.465.465,0,0,0,.464-.464v-1.673a.463.463,0,0,0-.464-.464h-6.682a.459.459,0,0,0-.323.131l-.005.005-.007.007a.469.469,0,0,0-.129.321h0V266.8h0a.469.469,0,0,0,.129.321l.007.007.007,0a.462.462,0,0,0,.321.131h6.682a.465.465,0,0,0,.464-.464v-1.673a.465.465,0,0,0-.464-.465h-4.543V262.9h4.543a.464.464,0,0,0,.464-.464v-1.672a.465.465,0,0,0-.464-.465h-4.543v-1.756Z" transform="translate(-342.782 -241.751)"/></g></svg>