<svg xmlns="http://www.w3.org/2000/svg" width="56.499" height="39.493" viewBox="0 0 56.499 39.493"><defs><style>.a{fill:#fff;stroke-miterlimit:10;}.a,.b{stroke:#4ac6ff;stroke-width:4px;}.b{fill:none;stroke-linecap:round;}</style></defs><g transform="translate(2.22 2)"><path class="a" d="M67.265,249.76H35.811a5.709,5.709,0,0,0-4.5,2.193L21.9,263.992a5.707,5.707,0,0,0,0,7.03l9.409,12.038a5.707,5.707,0,0,0,4.5,2.193H67.265a5.708,5.708,0,0,0,5.708-5.709V255.469A5.709,5.709,0,0,0,67.265,249.76Z" transform="translate(-20.694 -249.76)"/><g transform="translate(-263.053 -1219.693)"><line class="b" x1="16.6" y2="16.6" transform="translate(284.317 1228.907)"/><line class="b" x2="16.6" y2="16.6" transform="translate(284.317 1228.907)"/></g></g></svg>