<svg xmlns="http://www.w3.org/2000/svg" width="72" height="72" viewBox="0 0 72 72"><defs><style>.a{fill:red;opacity:0;}.b{fill:#fff;}.b,.c{stroke:#000;}.b,.c,.d{stroke-linejoin:round;stroke-width:3px;}.c,.d{fill:none;}.d{stroke:#4ac6fd;}</style></defs><g transform="translate(-544 -815)"><rect class="a" width="72" height="72" transform="translate(544 815)"/><g transform="translate(227 -240)"><g transform="translate(330 1059)"><rect class="b" width="45.165" height="63.231" rx="4.261"/><line class="c" x2="19.3" transform="translate(18.107 51.187)"/><line class="c" x2="19.3" transform="translate(18.107 40.538)"/><circle class="c" cx="5.004" cy="5.004" r="5.004" transform="translate(17.578 10.203)"/><path class="c" d="M-903.6,1064.558a7.758,7.758,0,0,1,7.757-7.757,7.757,7.757,0,0,1,7.757,7.757" transform="translate(918.421 -1036.077)"/><path class="d" d="M-913.38,1079.142l2.786,2.786,4.535-4.536" transform="translate(920.822 -1041.13)"/><path class="d" d="M-913.38,1093.513l2.786,2.786,4.535-4.536" transform="translate(920.822 -1044.657)"/></g></g></g></svg>