<svg xmlns="http://www.w3.org/2000/svg" width="52" height="52" viewBox="0 0 52 52"><defs><style>.a,.b,.c{fill:none;}.b,.c{stroke:#fff;stroke-width:3px;}.b{stroke-linejoin:round;}</style></defs><g transform="translate(-106 -3077)"><rect class="a" width="52" height="52" transform="translate(106 3077)"/><g transform="translate(-228.322 -185.999)"><path class="b" d="M5261.376,4439.821a2.6,2.6,0,0,0,2.558-2.641v-20.628a2.647,2.647,0,0,0-1.215-2.249l-12.26-7.82a2.495,2.495,0,0,0-2.691,0l-12.262,7.821a2.647,2.647,0,0,0-1.215,2.249v20.628a2.6,2.6,0,0,0,2.558,2.641h24.528" transform="translate(-4888.791 -1134.089)"/><path class="c" d="M0,0H11.956" transform="translate(353.873 3299.736)"/></g></g></svg>