<svg xmlns="http://www.w3.org/2000/svg" width="100" height="100" viewBox="0 0 100 100"><defs><style>.a{fill:#fae301;fill-rule:evenodd;}.b{fill:#2f1109;}</style></defs><path class="a" d="M347.044,295.787A50,50,0,1,1,330.765,284.9,50,50,0,0,1,347.044,295.787Z" transform="translate(-261.652 -281.106)"/><path class="b" d="M290.683,357.1a.834.834,0,0,1-.567-.249.808.808,0,0,1-.237-.867l2.612-10.4a22.883,22.883,0,0,1-12.6-19.823c0-12.908,12.178-23.411,27.144-23.411a28.96,28.96,0,0,1,21.225,8.729,22.326,22.326,0,0,1,4.382,6.752,20.165,20.165,0,0,1,1.539,7.925c0,12.9-12.176,23.41-27.146,23.41a31.612,31.612,0,0,1-4.886-.369l-11.028,8.05A.861.861,0,0,1,290.683,357.1Zm7.5-25.878H303.5l.95,2.233a1.121,1.121,0,0,0,1.5.631l.033-.015.237-.118a1.186,1.186,0,0,0,.492-.468l.333-.572-4.917-11.622a1.419,1.419,0,0,0-.149-.392,1.31,1.31,0,0,0-.155-.209,1.217,1.217,0,0,0-.292-.274,1.1,1.1,0,0,0-.579-.2,1.2,1.2,0,0,0-.189,0,1.1,1.1,0,0,0-.62.193,1.206,1.206,0,0,0-.352.368l-.04.06-.045.075a1.2,1.2,0,0,0-.144.369l-.014.085-4.633,10.926a1.233,1.233,0,0,0-.1.512,1.312,1.312,0,0,0,.173.666,1.222,1.222,0,0,0,.495.468l.237.115a1.079,1.079,0,0,0,.474.106,1.153,1.153,0,0,0,1.055-.747l.938-2.211Zm20.357-10.911a1.108,1.108,0,0,0-.813.369,1.279,1.279,0,0,0-.352.877v11.609l.145.28a1.214,1.214,0,0,0,.192.277,1.109,1.109,0,0,0,.813.369h.261a1.112,1.112,0,0,0,.817-.369,1.3,1.3,0,0,0,.352-.876v-2.875l1.517-1.706,3.612,5.323a1.221,1.221,0,0,0,.418.369,1.115,1.115,0,0,0,1.187-.113l.207-.164a1.212,1.212,0,0,0,.352-.452,1.345,1.345,0,0,0,.12-.551,1.3,1.3,0,0,0-.218-.749l-3.9-5.7,3.237-3.641a1.282,1.282,0,0,0,.321-.861,1.363,1.363,0,0,0-.088-.483,1.273,1.273,0,0,0-.263-.414l-.19-.194a1.12,1.12,0,0,0-.808-.339,1.062,1.062,0,0,0-.434.093,1.128,1.128,0,0,0-.387.284l-4.7,5.293v-4.413a1.288,1.288,0,0,0-.352-.875,1.112,1.112,0,0,0-.809-.369Zm-9.766,0a1.129,1.129,0,0,0-.812.369,1.268,1.268,0,0,0-.352.877v11.694l.116.2a1.143,1.143,0,0,0,.39.431,1.217,1.217,0,0,0,.522.188h6.828a1.158,1.158,0,0,0,.813-.337,1.1,1.1,0,0,0,.218-.3l.321-.641-.46-.555a1.161,1.161,0,0,0-.892-.411h-5.3V321.536a1.287,1.287,0,0,0-.35-.873,1.115,1.115,0,0,0-.811-.369Zm-21.06,0a1.136,1.136,0,0,0-.8.337,1.069,1.069,0,0,0-.237.369,1.088,1.088,0,0,0,0,.88,1.18,1.18,0,0,0,.416.5,1.163,1.163,0,0,0,.641.194h2.809v10.256a1.276,1.276,0,0,0,.35.873,1.1,1.1,0,0,0,.81.369h.261a1.1,1.1,0,0,0,.812-.369,1.291,1.291,0,0,0,.352-.875V322.581H295.9a1.157,1.157,0,0,0,.765-.329,1.11,1.11,0,0,0,.237-.369,1.121,1.121,0,0,0-.42-1.379,1.174,1.174,0,0,0-.644-.194Zm14.833,8.666h-3.415l1.707-4.032Z" transform="translate(-257.063 -277.27)"/></svg>