<svg xmlns="http://www.w3.org/2000/svg" width="64" height="64" viewBox="0 0 64 64"><defs><style>.a{fill:#fff;opacity:0.15;}.b{fill:#4ac6ff;stroke:#4ac6ff;stroke-miterlimit:10;}.b,.c{stroke-width:3px;}.c{fill:none;stroke:#fff;stroke-linejoin:round;}</style></defs><g transform="translate(-408 -2734)"><rect class="a" width="64" height="64" transform="translate(408 2734)"/><path class="b" d="M5383.975,4407.83a2.8,2.8,0,0,0-2.75,2.84v22.173a2.843,2.843,0,0,0,1.306,2.416l13.18,8.408a2.688,2.688,0,0,0,2.892,0l13.182-8.409a2.842,2.842,0,0,0,1.306-2.416V4410.67a2.8,2.8,0,0,0-2.749-2.84h-26.367" transform="translate(-4957.158 -1657.672)"/><line class="c" x2="12.852" transform="translate(433.574 2764.463)"/><line class="c" y1="12.852" transform="translate(440 2758.037)"/></g></svg>