<svg xmlns="http://www.w3.org/2000/svg" width="60" height="60" viewBox="0 0 60 60"><defs><style>.a{fill:none;}.b{fill:#afafaf;}</style></defs><rect class="a" width="60" height="60"/><g transform="translate(-155.958 -146.945)"><g transform="translate(162.958 156.817)"><path class="b" d="M204.007,210.54a4.87,4.87,0,0,0,4.951-4.773V171.185a4.87,4.87,0,0,0-4.951-4.773h-36.1a4.87,4.87,0,0,0-4.951,4.773v34.582a4.87,4.87,0,0,0,4.951,4.773Zm-38.994-4.773V171.185a2.849,2.849,0,0,1,2.9-2.792h36.1a2.848,2.848,0,0,1,2.9,2.792v34.582a2.848,2.848,0,0,1-2.9,2.792h-36.1A2.849,2.849,0,0,1,165.013,205.767Z" transform="translate(-162.958 -166.412)"/></g><g transform="translate(175.301 152.945)"><path class="b" d="M206.976,161.916v-7.965a1.006,1.006,0,0,0-2.013,0v7.965a1.006,1.006,0,1,0,2.013,0Z" transform="translate(-204.963 -152.945)"/></g><g transform="translate(194.826 152.945)"><path class="b" d="M273.42,161.916v-7.965a1.006,1.006,0,0,0-2.013,0v7.965a1.006,1.006,0,1,0,2.013,0Z" transform="translate(-271.407 -152.945)"/></g><g transform="translate(163.964 166.383)"><rect class="b" width="43.768" height="2.013" transform="translate(0)"/></g><g transform="translate(170.844 174.114)"><path class="b" d="M192.791,229.209a1.5,1.5,0,1,0-1.5,1.5A1.5,1.5,0,0,0,192.791,229.209Z" transform="translate(-189.791 -227.709)"/></g><g transform="translate(180.088 174.114)"><path class="b" d="M224.241,229.209a1.5,1.5,0,1,0-1.5,1.5A1.5,1.5,0,0,0,224.241,229.209Z" transform="translate(-221.241 -227.709)"/></g><g transform="translate(189.331 174.114)"><path class="b" d="M255.691,229.209a1.5,1.5,0,1,0-1.5,1.5A1.5,1.5,0,0,0,255.691,229.209Z" transform="translate(-252.691 -227.709)"/></g><g transform="translate(198.575 174.114)"><path class="b" d="M287.142,229.209a1.5,1.5,0,1,0-1.5,1.5A1.5,1.5,0,0,0,287.142,229.209Z" transform="translate(-284.142 -227.709)"/></g><g transform="translate(170.844 182.29)"><path class="b" d="M192.791,258.086a1.5,1.5,0,1,0-1.5,1.5A1.5,1.5,0,0,0,192.791,258.086Z" transform="translate(-189.791 -256.586)"/></g><g transform="translate(180.088 182.29)"><path class="b" d="M224.241,258.086a1.5,1.5,0,1,0-1.5,1.5A1.5,1.5,0,0,0,224.241,258.086Z" transform="translate(-221.241 -256.586)"/></g><g transform="translate(189.331 182.29)"><path class="b" d="M255.691,258.086a1.5,1.5,0,1,0-1.5,1.5A1.5,1.5,0,0,0,255.691,258.086Z" transform="translate(-252.691 -256.586)"/></g><g transform="translate(198.575 182.29)"><path class="b" d="M287.142,258.086a1.5,1.5,0,1,0-1.5,1.5A1.5,1.5,0,0,0,287.142,258.086Z" transform="translate(-284.142 -256.586)"/></g><g transform="translate(170.844 190.467)"><path class="b" d="M192.791,286.963a1.5,1.5,0,1,0-1.5,1.5A1.5,1.5,0,0,0,192.791,286.963Z" transform="translate(-189.791 -285.463)"/></g><g transform="translate(180.088 190.467)"><path class="b" d="M224.241,286.963a1.5,1.5,0,1,0-1.5,1.5A1.5,1.5,0,0,0,224.241,286.963Z" transform="translate(-221.241 -285.463)"/></g><g transform="translate(189.331 190.467)"><path class="b" d="M255.691,286.963a1.5,1.5,0,1,0-1.5,1.5A1.5,1.5,0,0,0,255.691,286.963Z" transform="translate(-252.691 -285.463)"/></g></g></svg>