<svg xmlns="http://www.w3.org/2000/svg" width="72" height="72" viewBox="0 0 72 72"><defs><style>.a,.c,.e{fill:none;}.b{fill:#fff;}.b,.c,.d{stroke:#000;stroke-width:3px;}.b,.c,.d,.e{stroke-linejoin:round;}.c,.d{stroke-linecap:round;}.d{fill:#4ac6fd;}.e{stroke:#fff;stroke-width:4px;}</style></defs><g transform="translate(-324 -815)"><rect class="a" width="72" height="72" transform="translate(324 815)"/><g transform="translate(1301.65 -34.73)"><g transform="translate(-960.983 854.115)"><path class="b" d="M-923.06,900.44v13.832a3.073,3.073,0,0,1-3.073,3.073H-957.91a3.073,3.073,0,0,1-3.073-3.073V857.188a3.073,3.073,0,0,1,3.073-3.073h31.777c1.7,0,3.073,1.375,3.073,4.16v3.313" transform="translate(960.983 -854.115)"/><line class="c" x2="37.923" transform="translate(0 51.562)"/><line class="c" x2="2.917" transform="translate(17.503 57.396)"/></g><path class="d" d="M-910.549,893.341A15.679,15.679,0,0,0-916.579,872a15.678,15.678,0,0,0-21.337,6.03,15.679,15.679,0,0,0,2.228,18.355l-.938,7.442,6.314-3.7A15.676,15.676,0,0,0-910.549,893.341Z" transform="translate(-1.875 -5.431)"/><g transform="translate(-936.53 874.686)"><line class="e" x2="12.845" transform="translate(4 5.423)"/><line class="e" y1="12.845" transform="translate(10.423 -1)"/></g></g></g></svg>