<svg xmlns="http://www.w3.org/2000/svg" width="72" height="72" viewBox="0 0 72 72"><defs><style>.a{fill:red;opacity:0;}.b{fill:#4ac6fd;}.c{fill:#fff;}.c,.d,.e{stroke:#000;stroke-linejoin:round;stroke-width:3px;}.c,.e{stroke-linecap:round;}.d,.e{fill:none;}</style></defs><g transform="translate(-324 -1039)"><rect class="a" width="72" height="72" transform="translate(324 1039)"/><g transform="translate(1015.143 183.332)"><g transform="translate(-658.999 906.619)"><path class="b" d="M-636.749,937.224h-9.468a7.345,7.345,0,0,1-7.345-7.345h0a7.346,7.346,0,0,1,7.345-7.346h9.468Z" transform="translate(653.562 -922.533)"/></g><rect class="c" width="26.939" height="9.913" rx="2.611" transform="translate(-670.291 860.122)"/><g transform="translate(-674.886 870.035)"><path class="d" d="M-629.2,903.392V888.718a8.193,8.193,0,0,0-8.193-8.193h0v-7.1" transform="translate(665.325 -873.428)"/><path class="d" d="M-666.692,873.428v7.1h0a8.193,8.193,0,0,0-8.194,8.193v32.258a3.727,3.727,0,0,0,3.727,3.727h6.482" transform="translate(674.886 -873.428)"/></g><rect class="e" width="32.364" height="14.691" rx="7.345" transform="translate(-659 906.619)"/><line class="e" y2="11.952" transform="translate(-642.818 908.192)"/><line class="d" x2="19.544" transform="translate(-666.494 886.062)"/></g></g></svg>