<svg xmlns="http://www.w3.org/2000/svg" width="90" height="90" viewBox="0 0 90 90"><defs><style>.a{fill:#4d4d4d;fill-rule:evenodd;}.b{fill:#fff;}</style></defs><path class="a" d="M202.155,245.684a45,45,0,1,1-14.651-9.8A45,45,0,0,1,202.155,245.684Z" transform="translate(-125.301 -232.47)"/><g transform="translate(22.659 35.592)"><path class="b" d="M142.8,256.208h3.444v9.916c0,2.927.935,4.845,3.567,4.845s3.567-1.918,3.567-4.845v-9.916h3.444V267.18c0,4.6-2.607,6.5-7.011,6.5s-7.011-1.9-7.011-6.5Z" transform="translate(-142.804 -256.208)"/><path class="b" d="M151.384,256.208H155.1c3.69,0,8.094-.121,8.094,4.65a3.929,3.929,0,0,1-3.545,3.986v.049c.935.074,1.477,1.009,1.821,1.77l2.755,6.718h-3.838l-2.066-5.364c-.492-1.28-.935-1.77-2.388-1.77h-1.106v7.134h-3.444Zm3.444,7.331h1.13c1.7,0,3.643-.246,3.643-2.386,0-2.068-1.92-2.24-3.643-2.24h-1.13Z" transform="translate(-133.784 -256.208)"/><path class="b" d="M158.86,256.208H162.3v14.466h6.669v2.708H158.86Z" transform="translate(-125.924 -256.208)"/></g></svg>