<svg xmlns="http://www.w3.org/2000/svg" width="34" height="34" viewBox="0 0 34 34"><defs><style>.a{fill:none;}.b{fill:#00c3ff;stroke:#0bc6ff;stroke-width:0.5px;}</style></defs><rect class="a" width="34" height="34"/><g transform="translate(4.646 4.755)"><path class="b" d="M382.044,210.276a10.842,10.842,0,1,1-2.37-12.017l-1.311,1.315c-.227.228-.151.439.168.47l4.109.4a.465.465,0,0,0,.525-.526l-.395-4.119c-.031-.32-.241-.4-.468-.169l-1.3,1.3A12.7,12.7,0,0,0,359.4,206a12.7,12.7,0,0,0,24.387,5.009.945.945,0,0,0-.4-1.186h0A.944.944,0,0,0,382.044,210.276Z" transform="translate(-359.397 -193.77)"/></g></svg>