<svg xmlns="http://www.w3.org/2000/svg" width="65" height="65" viewBox="0 0 65 65"><defs><style>.a{fill:#fde2e2;stroke:rgba(0,0,0,0);opacity:0;}.b{fill:none;stroke:#000;stroke-width:3px;}</style></defs><g transform="translate(528.563 -210.181)"><rect class="a" width="64" height="64" transform="translate(-528.063 210.681)"/><g transform="translate(-517.63 224.229)"><path class="b" d="M-487.549,229.674l-2.585-4.131a2.571,2.571,0,0,0-2.178-1.206h-7.266a2.568,2.568,0,0,0-2.177,1.206l-2.586,4.131a1.4,1.4,0,0,1-1.185.657h-9.818a2.168,2.168,0,0,0-2.168,2.168v23.985a2.168,2.168,0,0,0,2.168,2.168h38.8a2.168,2.168,0,0,0,2.168-2.168V232.5a2.168,2.168,0,0,0-2.168-2.168h-9.818A1.4,1.4,0,0,1-487.549,229.674Z" transform="translate(517.512 -224.337)"/><circle class="b" cx="8.338" cy="8.338" r="8.338" transform="translate(13.23 11.952)"/><line class="b" x1="6.749" transform="translate(31.945 11.57)"/></g></g></svg>