<svg xmlns="http://www.w3.org/2000/svg" xmlns:xlink="http://www.w3.org/1999/xlink" width="202" height="221" viewBox="0 0 202 221"><defs><style>.a{fill:none;}.b{fill:url(#a);}.c{fill:#fff;}.d{fill:#2f8dfc;}.e{fill:#40abff;}.f{filter:url(#d);}.g{filter:url(#b);}</style><linearGradient id="a" x1="0.232" y1="0.173" x2="1.063" y2="1" gradientUnits="objectBoundingBox"><stop offset="0" stop-color="#4ac6ff"/><stop offset="1" stop-color="#0010a2"/></linearGradient><filter id="b" x="0" y="0" width="202" height="221" filterUnits="userSpaceOnUse"><feOffset dx="10" dy="15" input="SourceAlpha"/><feGaussianBlur stdDeviation="15" result="c"/><feFlood flood-opacity="0.294"/><feComposite operator="in" in2="c"/><feComposite in="SourceGraphic"/></filter><filter id="d" x="42" y="59.234" width="98" height="89.766" filterUnits="userSpaceOnUse"><feOffset dy="3" input="SourceAlpha"/><feGaussianBlur stdDeviation="3" result="e"/><feFlood flood-opacity="0.161"/><feComposite operator="in" in2="e"/><feComposite in="SourceGraphic"/></filter></defs><g transform="translate(-509 -2823)"><rect class="a" width="172" height="172" transform="translate(517 2840)"/><g transform="translate(21045 16772)"><g class="g" transform="matrix(1, 0, 0, 1, -20536, -13949)"><path class="b" d="M37.083,119.679A55.991,55.991,0,0,1,31.8,16.485a26.011,26.011,0,0,1,48.407,0,55.977,55.977,0,0,1,17.018,88.38h0c-.022.023-.048.047-.071.07a56.231,56.231,0,0,1-10.21,8.7C64.322,129.678,37.083,131,37.083,131Z" transform="translate(35 30)"/></g><g class="f" transform="matrix(1, 0, 0, 1, -20536, -13949)"><path class="c" d="M40,107A39.967,39.967,0,0,1,0,67a40.188,40.188,0,0,1,1.11-9.4,39.873,39.873,0,0,1,8.1-16.142,40.292,40.292,0,0,1,6.475-6.227,26.014,26.014,0,0,0,48.625,0A40.173,40.173,0,0,1,75.733,49a39.783,39.783,0,0,1,3.157,8.6A40.187,40.187,0,0,1,80,67a39.968,39.968,0,0,1-40,40Z" transform="translate(51 30)"/></g><g transform="translate(-20464.127 -13860.706)"><path class="d" d="M-777.337-219.622a21.685,21.685,0,0,1-18.9-11.1,1.8,1.8,0,0,1,.844-2.515l3.052-1.362a1.793,1.793,0,0,1,2.28.754,14.764,14.764,0,0,0,12.724,7.312,14.774,14.774,0,0,0,12.728-7.312,1.788,1.788,0,0,1,2.276-.754l3.056,1.362a1.8,1.8,0,0,1,.843,2.515A21.685,21.685,0,0,1-777.337-219.622Z" transform="translate(796.464 253.034)"/><ellipse class="d" cx="4.842" cy="4.842" rx="4.842" ry="4.842" transform="translate(1.224)"/><ellipse class="d" cx="4.842" cy="4.842" rx="4.842" ry="4.842" transform="translate(27.347)"/></g><circle class="c" cx="17" cy="17" r="17" transform="translate(-20462 -13910)"/><path class="e" d="M-796.908-240h-5.254v-5.254a.934.934,0,0,0-.933-.934h-4.652a.934.934,0,0,0-.933.934V-240h-5.254a.934.934,0,0,0-.935.933v4.65a.935.935,0,0,0,.935.935h5.254v5.254a.934.934,0,0,0,.933.934h4.652a.934.934,0,0,0,.933-.934v-5.254h5.254a.935.935,0,0,0,.935-.935v-4.65A.934.934,0,0,0-796.908-240Z" transform="translate(-19639.578 -13656.255)"/></g></g></svg>