<svg xmlns="http://www.w3.org/2000/svg" width="34" height="34" viewBox="0 0 34 34"><defs><style>.a{fill:none;}.b{fill:#0bc6ff;stroke:#0bc6ff;stroke-width:0.4px;}</style></defs><rect class="a" width="34" height="34"/><path class="b" d="M2104.576,988.869l3.619,3.619.727-.727a.745.745,0,0,0,.023-1.021l-.023-.022-2.576-2.577a.744.744,0,0,0-1.021-.022Zm2.344,11.22a.575.575,0,1,1,1.15,0v13.54a2.152,2.152,0,0,1-.636,1.523v0a2.154,2.154,0,0,1-1.524.635h-22.474a2.155,2.155,0,0,1-1.524-.634l0,0a2.152,2.152,0,0,1-.635-1.525V991.155a2.158,2.158,0,0,1,.636-1.526h0a2.152,2.152,0,0,1,1.526-.635h13.54a.575.575,0,1,1,0,1.151h-13.54a1,1,0,0,0-.713.3h0a1.007,1.007,0,0,0-.295.714v22.474a1.009,1.009,0,0,0,1.01,1.01h22.474a1.016,1.016,0,0,0,1.011-1.01Zm1.681-6.38-13.47,13.469a.567.567,0,0,1-.264.151l-6.652,2.246a.573.573,0,0,1-.726-.726l2.246-6.65v-.006l0-.009,0,0v0h0l0-.005,0,0v0h0l0,0,0-.005,0,0,0,0v0l0,0v0l0,0,0,0,0,0h0v0l0,0,0-.009,0,0v-.009l0,0v0l0,0v0l0,0v0l0,0,0,0,0,0,0,0,0,0v0l0,0,0,0,0,0v0l0,0,0,0,0,0h0l0,0,0,0,0,0h0l0,0,0,0,0,0h0l0,0,0,0,0,0h0l0,0,0,0,0,0h0l0,0,0,0,0,0h0l0,0,0,0,0,0h0l0,0,0,0,0,0,0,0,0,0,0,0h0l13.469-13.469,1.134-1.134.036-.034a1.889,1.889,0,0,1,2.633.034l2.576,2.577.033.036a1.888,1.888,0,0,1-.033,2.633Zm-14.937,12.815-3.125-3.125-1.593,4.718Zm-2.559-4.185,3.619,3.619,12.656-12.656-3.619-3.619Z" transform="translate(-2076.604 -984.413)"/></svg>