<svg xmlns="http://www.w3.org/2000/svg" width="90" height="90" viewBox="0 0 90 90"><defs><style>.a{fill:#1877f2;}.a,.b{fill-rule:evenodd;}.b{fill:#fff;}</style></defs><path class="a" d="M348.224,245.505a45,45,0,1,1-14.651-9.8A45,45,0,0,1,348.224,245.505Z" transform="translate(-271.371 -232.291)"/><path class="b" d="M314.392,270.316H306.78v21.894H299.4V270.316h-6.259v-7.1H299.4l-.008-4.279.006-.432a11.311,11.311,0,0,1,.189-1.917,10.026,10.026,0,0,1,.5-1.787,9.076,9.076,0,0,1,.81-1.611,8.606,8.606,0,0,1,2.448-2.523,8.943,8.943,0,0,1,1.575-.85,9.986,9.986,0,0,1,1.764-.552,11.655,11.655,0,0,1,1.925-.247c.308-.015.621-.027.936-.034s.614-.01.919-.01.61,0,.908.01.6.017.893.029l.474.015.6.021c.531.017,1.141.036,1.693.057.568.021,1.078.044,1.4.065l.516.038-1.653,6.423h-4.434a6.241,6.241,0,0,0-.925.067,4.5,4.5,0,0,0-.808.195,3.589,3.589,0,0,0-.688.323,3.346,3.346,0,0,0-.579.443,3.2,3.2,0,0,0-.464.562,3.61,3.61,0,0,0-.334.671,4.009,4.009,0,0,0-.208.786,5.4,5.4,0,0,0-.071.892v3.635h7.614v7.108" transform="translate(-259.995 -224.284)"/></svg>