<svg xmlns="http://www.w3.org/2000/svg" width="72" height="72" viewBox="0 0 72 72"><defs><style>.a{fill:red;opacity:0;}.b{fill:#fff;stroke:#000;}.b,.c{stroke-miterlimit:10;stroke-width:3px;}.c{fill:none;stroke:#4ac6fd;}</style></defs><g transform="translate(-104 -815)"><rect class="a" width="72" height="72" transform="translate(104 815)"/><g transform="translate(795.164 -190.932)"><path class="b" d="M-673.41,1056.844c5.448,4.945,13.964,12.668,17.183,15.588a1.918,1.918,0,0,0,2.581,0c4.848-4.4,21.717-19.7,22-19.98a20.42,20.42,0,0,0,5.706-17.58c-.473-3.337-3.629-13.728-14.7-15.879-6.815-1.324-10.95,1.57-12.916,3.588a1.928,1.928,0,0,1-2.778,0c-1.966-2.018-6.1-4.911-12.916-3.588-11.07,2.151-14.227,12.542-14.7,15.879a21.943,21.943,0,0,0-.172,4.5" transform="translate(0 0)"/><path class="c" d="M-679.114,1052.468h11.78l3.455-6.565,6.068,12.042,3.32-5.478h14.07" transform="translate(-1.064 -5.739)"/></g></g></svg>