<svg xmlns="http://www.w3.org/2000/svg" width="65" height="65" viewBox="0 0 65 65"><defs><style>.a{fill:#fde2e2;stroke:rgba(0,0,0,0);opacity:0;}.b{fill:none;stroke:#000;stroke-width:3px;}.c{fill:#ff3435;}.d{fill:#fff;}</style></defs><g transform="translate(-4862.5 -69.5)"><rect class="a" width="64" height="64" transform="translate(4863 70)"/><g transform="translate(-20.607 -63.088)"><path class="b" d="M-787.245,575.572a4.678,4.678,0,0,1-4.677,4.677,4.677,4.677,0,0,1-4.677-4.677" transform="translate(5707.223 -395.001)"/><path class="b" d="M-775.642,561.609c0,4.6,2.221,6.606,3.41,7.353a1.6,1.6,0,0,1,.732,1.369v2.71a1.655,1.655,0,0,1-1.656,1.655h-33.29a1.655,1.655,0,0,1-1.656-1.655v-2.716a1.6,1.6,0,0,1,.726-1.365c1.178-.747,3.378-2.758,3.378-7.352l-.014-6.3a14.183,14.183,0,0,1,14.183-14.183" transform="translate(5705.101 -396.936)"/><circle class="c" cx="10.102" cy="10.102" r="10.102" transform="translate(4916.46 141.552)"/><path class="d" d="M-776.255,553.3h-1.692l-4.338-6.9v6.9h-1.692v-9.736h1.692l4.352,6.934v-6.934h1.679Z" transform="translate(5706.677 -396.777)"/></g></g></svg>