<svg xmlns="http://www.w3.org/2000/svg" width="100" height="100.002" viewBox="0 0 100 100.002"><defs><style>.a{fill-rule:evenodd;}.b{fill:#fff;}</style></defs><path class="a" d="M347.042,553.433a50,50,0,1,1-16.279-10.884A50,50,0,0,1,347.042,553.433Z" transform="translate(-261.651 -538.75)"/><g transform="translate(25.914 20.561)"><path class="b" d="M322.8,584.185a13.074,13.074,0,0,1,6.249-11.006,13.554,13.554,0,0,0-10.579-5.753c-4.513-.444-8.808,2.671-11.088,2.671s-5.82-2.584-9.554-2.511a14.17,14.17,0,0,0-11.981,7.252c-5.1,8.86-1.312,21.99,3.673,29.163,2.43,3.518,5.323,7.467,9.128,7.327,3.673-.143,5.06-2.37,9.492-2.37s5.679,2.37,9.56,2.311c3.942-.081,6.456-3.6,8.851-7.123a32.133,32.133,0,0,0,4.007-8.238A12.768,12.768,0,0,1,322.8,584.185Z" transform="translate(-283.418 -553.432)"/><path class="b" d="M310.78,565.479a12.685,12.685,0,0,0,3.014-9.241,12.969,12.969,0,0,0-8.522,4.381,12.139,12.139,0,0,0-3.077,8.965A10.745,10.745,0,0,0,310.78,565.479Z" transform="translate(-278.698 -556.238)"/></g></svg>