<svg xmlns="http://www.w3.org/2000/svg" width="200.001" height="132.001" viewBox="0 0 200.001 132.001"><defs><style>.a{fill:#fff;}.b{fill:#0e1e96;}.c{fill:#4ac6ff;}</style></defs><rect class="a" width="200" height="132" transform="translate(0.001)"/><g transform="translate(-1003.001 -378.33)"><g transform="translate(1003.001 378.331)"><g transform="translate(0)"><path class="b" d="M400.543,379.433h3.908a1.651,1.651,0,0,0,1.65-1.651V333.3a1.651,1.651,0,0,0-1.651-1.651h-3.908a3.774,3.774,0,0,0-3.774,3.774v40.233A3.774,3.774,0,0,0,400.543,379.433Z" transform="translate(-311.772 -247.433)"/><path class="b" d="M352.356,342.909h13.238v-8.2H344.674a1.65,1.65,0,0,0-1.65,1.65v28.993l9.332.852Z" transform="translate(-292.022 -248.481)"/><path class="b" d="M343.024,377.261a78.409,78.409,0,0,0,36.5-6.963v8.862s-14.467,6.907-34.879,6.352a1.656,1.656,0,0,1-1.621-1.651Z" transform="translate(-292.023 -260.682)"/><path class="b" d="M312.676,355.051h5.3v20.606a3.774,3.774,0,0,0,3.774,3.774h3.908a1.651,1.651,0,0,0,1.651-1.651V333.3a1.651,1.651,0,0,0-1.651-1.651h-3.908a3.774,3.774,0,0,0-3.774,3.774v11.312h-5.3Z" transform="translate(-280.145 -247.433)"/><path class="b" d="M482.634,331.647h-3.907a3.774,3.774,0,0,0-3.774,3.774v40.235a3.774,3.774,0,0,0,3.774,3.774h3.907a1.651,1.651,0,0,0,1.651-1.651v-22.06h5.537a1.651,1.651,0,0,0,1.651-1.651V351.18a3.774,3.774,0,0,0-3.774-3.774h-3.414V333.3A1.65,1.65,0,0,0,482.634,331.647Z" transform="translate(-341.489 -247.431)"/><path class="b" d="M278.079,333.992a17.668,17.668,0,1,0,17.668,17.668A17.667,17.667,0,0,0,278.079,333.992Zm0,26.85a9.182,9.182,0,1,1,9.182-9.182A9.182,9.182,0,0,1,278.079,360.842Z" transform="translate(-260.411 -248.235)"/><path class="b" d="M434.094,333.992a17.668,17.668,0,1,0,17.668,17.668A17.667,17.667,0,0,0,434.094,333.992Zm0,26.85a9.182,9.182,0,1,1,9.182-9.182A9.182,9.182,0,0,1,434.094,360.842Z" transform="translate(-319.96 -248.235)"/><path class="b" d="M532.894,334.709H501.681a1.65,1.65,0,0,0-1.65,1.65v2.776a3.774,3.774,0,0,0,3.774,3.774H530.77a3.774,3.774,0,0,0,3.774-3.774v-2.776A1.65,1.65,0,0,0,532.894,334.709Z" transform="translate(-352.907 -246.302)"/><path class="b" d="M564.685,347.971V333.3a1.651,1.651,0,0,0-1.651-1.65h-3.907a3.774,3.774,0,0,0-3.774,3.774v40.235a3.774,3.774,0,0,0,3.774,3.774h3.907a1.651,1.651,0,0,0,1.651-1.651V356.285h5.538a1.651,1.651,0,0,0,1.651-1.651v-2.889a3.775,3.775,0,0,0-3.774-3.774Z" transform="translate(-371.874 -247.431)"/><path class="b" d="M503.851,377.951a79.317,79.317,0,0,0,32.74-7.091v8.862s-14.467,6.908-34.88,6.352a1.656,1.656,0,0,1-1.62-1.65v-2.7A3.768,3.768,0,0,1,503.851,377.951Z" transform="translate(-352.928 -260.875)"/><rect class="b" width="8.493" height="26.114" transform="translate(168.019 93.049)"/><rect class="b" width="8.493" height="26.451" transform="translate(154.441 93.049)"/><path class="c" d="M395.443,232.053h-6.334V225.72a1.125,1.125,0,0,0-1.125-1.126h-5.606a1.126,1.126,0,0,0-1.126,1.126v6.334h-6.334a1.125,1.125,0,0,0-1.125,1.125v5.606a1.126,1.126,0,0,0,1.125,1.126h6.334v6.334a1.126,1.126,0,0,0,1.126,1.125h5.606a1.125,1.125,0,0,0,1.125-1.125V239.91h6.334a1.126,1.126,0,0,0,1.126-1.126v-5.606A1.125,1.125,0,0,0,395.443,232.053Z" transform="translate(-303.393 -204.509)"/><path class="c" d="M394.658,248.2h0a12.18,12.18,0,0,0-12.972-2.546l-.076.029a22.388,22.388,0,1,1-.179-41.873l.076.028a12.009,12.009,0,0,0,13.281-3.326l.4-.453a.015.015,0,0,0,0-.02,32.89,32.89,0,1,0-9.842,55.4,33.177,33.177,0,0,0,6.895-3.632v.005c3.353-2.124,4.369-1.736,4.369-1.736Z" transform="translate(-291.464 -191.898)"/><g transform="translate(93.682 8.796)"><path class="b" d="M459.1,214.912a32.837,32.837,0,0,0-41.5-4.074v0c-3.426,2-4.428,1.58-4.428,1.58l1.875,1.943h.011a12,12,0,0,0,12.844,2.864l.076-.028a22.376,22.376,0,1,1-.179,41.874l-.075-.03a12.158,12.158,0,0,0-13.5,3.089l-.389.432A32.87,32.87,0,0,0,459.1,214.912Z" transform="translate(-413.177 -205.283)"/><path class="b" d="M442.564,269.375a13.645,13.645,0,0,1-11.893-6.986,1.133,1.133,0,0,1,.531-1.582l1.922-.858a1.127,1.127,0,0,1,1.433.473,9.268,9.268,0,0,0,16.016,0,1.128,1.128,0,0,1,1.434-.474l1.921.858a1.133,1.133,0,0,1,.531,1.582A13.646,13.646,0,0,1,442.564,269.375Z" transform="translate(-419.126 -223.992)"/><circle class="b" cx="3.047" cy="3.047" r="3.047" transform="translate(12.173 24.359)"/><circle class="b" cx="3.047" cy="3.047" r="3.047" transform="translate(28.61 24.359)"/></g><path class="b" d="M373.438,334.709H350.76a1.651,1.651,0,0,0-1.651,1.65v2.776a3.774,3.774,0,0,0,3.774,3.774h18.431a3.774,3.774,0,0,0,3.774-3.774v-2.776A1.65,1.65,0,0,0,373.438,334.709Z" transform="translate(-294.091 -248.482)"/></g></g></g></svg>