<svg xmlns="http://www.w3.org/2000/svg" width="242" height="56" viewBox="0 0 242 56"><defs><style>.a{fill:#fff;}.b{fill:#4ac6ff;}.c{fill:#0e1e96;}</style></defs><g transform="translate(-104.649 3799.299)"><rect class="a" width="242" height="56" transform="translate(104.649 -3799.299)"/><g transform="translate(112.639 -3797.088)"><path class="b" d="M388.077,229.515H383.9v-4.179a.742.742,0,0,0-.742-.743h-3.7a.743.743,0,0,0-.743.743v4.179h-4.179a.742.742,0,0,0-.742.742v3.7a.743.743,0,0,0,.742.743h4.179v4.179a.743.743,0,0,0,.743.742h3.7a.742.742,0,0,0,.742-.742V234.7h4.179a.743.743,0,0,0,.743-.743v-3.7A.742.742,0,0,0,388.077,229.515Z" transform="translate(-359.437 -210.418)"/><path class="b" d="M376.292,229.042h0a8.036,8.036,0,0,0-8.558-1.68l-.05.019a14.77,14.77,0,1,1-.118-27.626l.05.019a7.923,7.923,0,0,0,8.762-2.194l.262-.3a.01.01,0,0,0,0-.013,21.7,21.7,0,1,0-6.493,36.549,21.889,21.889,0,0,0,4.549-2.4v0c2.212-1.4,2.883-1.145,2.883-1.145Z" transform="translate(-340.68 -191.898)"/><g transform="translate(31.432 5.803)"><path class="c" d="M443.475,211.636a21.664,21.664,0,0,0-27.377-2.688v0c-2.261,1.322-2.921,1.042-2.921,1.042l1.237,1.282h.008a7.918,7.918,0,0,0,8.473,1.889l.05-.019a14.762,14.762,0,1,1-.118,27.626l-.049-.019a8.021,8.021,0,0,0-8.907,2.038l-.257.285a21.686,21.686,0,0,0,29.862-31.434Z" transform="translate(-413.177 -205.283)"/><path class="c" d="M438.469,266.135a9,9,0,0,1-7.847-4.609.747.747,0,0,1,.35-1.044l1.268-.566a.744.744,0,0,1,.945.312,6.114,6.114,0,0,0,10.566,0,.744.744,0,0,1,.946-.313l1.267.566a.748.748,0,0,1,.35,1.044A9,9,0,0,1,438.469,266.135Z" transform="translate(-423.005 -236.193)"/><ellipse class="c" cx="2.01" cy="2.01" rx="2.01" ry="2.01" transform="translate(8.031 16.071)"/><ellipse class="c" cx="2.01" cy="2.01" rx="2.01" ry="2.01" transform="translate(18.876 16.071)"/></g><g transform="translate(76.87 9.255)"><path class="c" d="M523.5,334.709H501.209a1.178,1.178,0,0,0-1.178,1.178v1.982a2.7,2.7,0,0,0,2.7,2.7h19.255a2.7,2.7,0,0,0,2.695-2.7v-1.982A1.178,1.178,0,0,0,523.5,334.709Z" transform="translate(-387.586 -333.272)"/><g transform="translate(0 0)"><path class="c" d="M399.464,365.771h2.791a1.179,1.179,0,0,0,1.178-1.179V332.831a1.179,1.179,0,0,0-1.179-1.179h-2.79a2.7,2.7,0,0,0-2.695,2.695v28.729A2.7,2.7,0,0,0,399.464,365.771Z" transform="translate(-332.782 -331.65)"/><path class="c" d="M349.688,340.565h9.453v-5.855H344.2a1.178,1.178,0,0,0-1.178,1.178v20.7l6.664.609Z" transform="translate(-304.257 -333.272)"/><path class="c" d="M343.024,375.27a55.99,55.99,0,0,0,26.064-4.972v6.328a59.264,59.264,0,0,1-24.907,4.536,1.183,1.183,0,0,1-1.157-1.179Z" transform="translate(-304.257 -352.16)"/><path class="c" d="M312.676,348.361h3.788v14.714a2.7,2.7,0,0,0,2.7,2.695h2.79a1.179,1.179,0,0,0,1.179-1.179V332.831a1.179,1.179,0,0,0-1.179-1.179h-2.79a2.7,2.7,0,0,0-2.7,2.695v8.078h-3.788Z" transform="translate(-288.15 -331.65)"/><path class="c" d="M480.437,331.647h-2.79a2.7,2.7,0,0,0-2.695,2.695v28.731a2.7,2.7,0,0,0,2.695,2.695h2.79a1.179,1.179,0,0,0,1.179-1.179V348.836h3.954a1.179,1.179,0,0,0,1.179-1.179v-2.062a2.7,2.7,0,0,0-2.7-2.7h-2.438V332.825A1.179,1.179,0,0,0,480.437,331.647Z" transform="translate(-374.275 -331.647)"/><path class="c" d="M273.027,333.992a12.616,12.616,0,1,0,12.616,12.616A12.616,12.616,0,0,0,273.027,333.992Zm0,19.173a6.557,6.557,0,1,1,6.557-6.557A6.557,6.557,0,0,1,273.027,353.165Z" transform="translate(-260.411 -332.892)"/><path class="c" d="M429.042,333.992a12.616,12.616,0,1,0,12.616,12.616A12.616,12.616,0,0,0,429.042,333.992Zm0,19.173a6.557,6.557,0,1,1,6.557-6.557A6.557,6.557,0,0,1,429.042,353.165Z" transform="translate(-343.214 -332.892)"/><path class="c" d="M562.017,343.3V332.825a1.178,1.178,0,0,0-1.179-1.178h-2.79a2.7,2.7,0,0,0-2.695,2.695v28.731a2.7,2.7,0,0,0,2.695,2.695h2.79a1.179,1.179,0,0,0,1.179-1.179V349.24h3.955a1.179,1.179,0,0,0,1.179-1.179V346a2.7,2.7,0,0,0-2.695-2.695Z" transform="translate(-416.947 -331.647)"/><path class="c" d="M502.776,375.924a56.639,56.639,0,0,0,23.379-5.064v6.328a59.253,59.253,0,0,1-24.907,4.536,1.182,1.182,0,0,1-1.157-1.178v-1.927A2.69,2.69,0,0,1,502.776,375.924Z" transform="translate(-387.618 -352.459)"/><rect class="c" width="6.064" height="18.647" transform="translate(127.366 6.308)"/><rect class="c" width="6.064" height="18.888" transform="translate(116.24 6.308)"/></g><path class="c" d="M366.482,334.709H350.288a1.179,1.179,0,0,0-1.179,1.178v1.982a2.7,2.7,0,0,0,2.695,2.7h13.161a2.7,2.7,0,0,0,2.695-2.7v-1.982A1.178,1.178,0,0,0,366.482,334.709Z" transform="translate(-307.486 -333.272)"/></g></g></g></svg>