<svg xmlns="http://www.w3.org/2000/svg" width="68" height="68" viewBox="0 0 68 68"><defs><style>.a{fill:#4ac6ff;stroke:#4ac6ff;stroke-width:2.2px;}.b,.d{fill:none;}.b{stroke:#fff;stroke-linecap:round;stroke-miterlimit:10;stroke-width:2px;}.c{stroke:none;}</style></defs><g class="a"><circle class="c" cx="34" cy="34" r="34"/><circle class="d" cx="34" cy="34" r="32.9"/></g><path class="b" d="M1209.337,716.736V727.9a1.953,1.953,0,0,1-1.916,1.987h-26.5A1.952,1.952,0,0,1,1179,727.9V709.518a1.952,1.952,0,0,1,1.916-1.987h26.5a1.953,1.953,0,0,1,1.916,1.987v7.218Z" transform="translate(-1164.58 -679.12)"/><rect class="b" width="5.588" height="3.992" rx="0.998" transform="translate(35.176 33.201)"/><line class="b" x2="14.37" transform="translate(19.211 46.773)"/><line class="b" x2="7.983" transform="translate(19.211 42.781)"/><path class="b" d="M1189.456,703.77v-9.189a1.953,1.953,0,0,1,1.916-1.987h26.5a1.952,1.952,0,0,1,1.916,1.987V712.96a1.952,1.952,0,0,1-1.916,1.987h-5.269" transform="translate(-1167.213 -675.359)"/><line class="b" x2="30.337" transform="translate(22.244 22.024)"/><line class="b" x2="30.337" transform="translate(22.244 25.017)"/></svg>