<svg xmlns="http://www.w3.org/2000/svg" width="68" height="68" viewBox="0 0 68 68"><defs><style>.a{fill:#4ac6ff;stroke:#4ac6ff;}.a,.b{stroke-width:2.2px;}.b,.c,.e{fill:none;}.b,.c{stroke:#fff;stroke-linecap:round;stroke-linejoin:round;}.c{stroke-width:2px;}.d{stroke:none;}</style></defs><g class="a"><circle class="d" cx="34" cy="34" r="34"/><circle class="e" cx="34" cy="34" r="32.9"/></g><g transform="translate(17.473 17.843)"><path class="b" d="M411,55.469h3.125V53.125A3.125,3.125,0,0,0,411,50" transform="translate(-378.188 -50)"/><path class="b" d="M398.688,53.125A3.125,3.125,0,0,1,401.813,50H375.25a3.125,3.125,0,0,0-3.125,3.125V82.032A3.125,3.125,0,0,1,369,85.157h26.563a3.125,3.125,0,0,0,3.125-3.125Z" transform="translate(-369 -50)"/><line class="b" x2="6.383" transform="translate(18.526 10.174)"/><line class="b" x2="6.383" transform="translate(18.526 6.526)"/><line class="b" x2="17.326" transform="translate(7.584 17.469)"/><line class="b" x2="17.326" transform="translate(7.584 21.117)"/><line class="b" x2="10.943" transform="translate(7.584 24.764)"/><path class="c" d="M387.813,66.906V65.344c0-1.019-2.15-2.344-3.906-2.344S380,64.325,380,65.344v1.563" transform="translate(-371.406 -52.844)"/><path class="c" d="M384.344,56A2.235,2.235,0,0,0,382,57.969V59.5a2.38,2.38,0,0,0,4.688,0V57.969A2.235,2.235,0,0,0,384.344,56Z" transform="translate(-371.844 -51.312)"/></g></svg>