<svg xmlns="http://www.w3.org/2000/svg" width="68" height="68" viewBox="0 0 68 68"><defs><style>.a{fill:#4ac6ff;}.a,.c{stroke:#4ac6ff;}.a,.b,.c{stroke-width:2.2px;}.b,.c,.e{fill:none;}.b{stroke:#fff;}.b,.c{stroke-linecap:round;stroke-linejoin:round;}.d{stroke:none;}</style></defs><g class="a"><circle class="d" cx="34" cy="34" r="34"/><circle class="e" cx="34" cy="34" r="32.9"/></g><path class="b" d="M144.05,172.758v-3.879c0-2.562-4.911-3.879-7.525-3.879S129,166.317,129,168.879v3.879" transform="translate(-114.184 -120.487)"/><path class="b" d="M137.344,159.637a3.076,3.076,0,0,0,3.344-3.055v-1.527a3.358,3.358,0,0,0-6.689,0v1.527A3.076,3.076,0,0,0,137.344,159.637Z" transform="translate(-115.004 -118.235)"/><path class="b" d="M159.758,145l-7.525,6.689-4.493-4.616" transform="translate(-117.35 -115.988)"/><line class="b" y2="2" transform="translate(35 22)"/><line class="c" x1="2" transform="translate(44 33)"/><line class="b" y1="2" transform="translate(35 42)"/><path class="b" d="M135.249,146.541a15.039,15.039,0,1,1,12.333,17.35" transform="translate(-115.207 -116.008)"/><path class="b" d="M131,149.348a19.331,19.331,0,1,1,16.71,19.17" transform="translate(-115.465 -116.307)"/></svg>