<svg xmlns="http://www.w3.org/2000/svg" width="68" height="68" viewBox="0 0 68 68"><defs><style>.a{fill:#4ac6ff;stroke:#4ac6ff;stroke-width:2px;}.b,.c,.d,.f{fill:none;}.b,.c,.d{stroke:#fff;stroke-width:2.2px;}.b,.d{stroke-linecap:round;}.b,.c{stroke-miterlimit:10;}.d{stroke-linejoin:round;}.e{stroke:none;}</style></defs><g class="a"><circle class="e" cx="34" cy="34" r="34"/><circle class="f" cx="34" cy="34" r="33"/></g><path class="b" d="M67.23,159.615v-1.846c0-1.2-2.54-2.769-4.615-2.769S58,156.565,58,157.769v1.846" transform="translate(-36.922 -119.116)"/><path class="c" d="M62.769,148A2.641,2.641,0,0,0,60,150.326v1.809a2.811,2.811,0,0,0,5.538,0v-1.809A2.641,2.641,0,0,0,62.769,148Z" transform="translate(-37.076 -118.577)"/><rect class="c" width="42" height="28" rx="3.191" transform="translate(13 24)"/><path class="d" d="M52,137.769v-.916A1.853,1.853,0,0,1,53.853,135H87.066a1.853,1.853,0,0,1,1.853,1.853v.916" transform="translate(-36.459 -117.575)"/><line class="d" x2="14" transform="translate(34 30)"/><line class="d" x2="14" transform="translate(34 35)"/><line class="d" x2="14" transform="translate(34 40)"/><line class="d" x2="28" transform="translate(20 44)"/></svg>