<svg xmlns="http://www.w3.org/2000/svg" width="640" height="320" viewBox="0 0 640 320"><defs><style>.a{fill:none;}.b{fill:#e8e8e8;}.c{fill:#98c7f5;}.d{fill:#c2d7f6;}.e{fill:#6bbced;}.f{fill:#7edefc;}.g{fill:#d8565d;}.h{fill:#f7d063;}.i{fill:#edc68c;}.j{fill:#1a1a1a;}.k{fill:#fff;}.l{fill:#333;}.m{fill:#574937;}.n{fill:#e0908a;}.o{fill:#f1cd92;}.p{fill:#6689d1;}.q{fill:#3d2614;}.r{fill:#87503d;}.s{fill:#d86873;}</style></defs><g transform="translate(-165 -624)"><rect class="a" width="640" height="320" transform="translate(165 624)"/><g transform="translate(222.641 566.154)"><ellipse class="b" cx="157.05" cy="24.504" rx="157.05" ry="24.504" transform="translate(84.359 315.829)"/><g transform="translate(104.182 88.908)"><path class="c" d="M377.5,88.908h-1.415c.475,0,.935.024,1.388.057Z" transform="translate(-187.625 -88.908)"/><path class="c" d="M284.493,123.82V110.689c0-12.029,4.8-21.781,16.091-21.781H131.449l-.083.152a21.782,21.782,0,0,0-19.243,21.629V123.82h172.37Z" transform="translate(-112.123 -88.908)"/><path class="d" d="M311.989,88.965c-.453-.034-.912-.057-1.388-.057-11.289,0-16.091,9.752-16.091,21.781V123.82H147.146V334.18H326.693V110.689C326.693,99.164,322.343,89.735,311.989,88.965ZM201.45,166.041l-5.58,2.615-1.335,2.848V202.4l-6.751-4.6-5.813-3.965L176,197.975l-6.366,4.422V171.635l-1.4-2.979-5.58-2.615.518-6.14-3.516-5.058,3.516-5.059-.518-6.14,5.58-2.616,2.615-5.579,6.14.519,5.059-3.517,5.059,3.517,6.139-.52,2.615,5.58,5.58,2.615-.52,6.141,3.517,5.058-3.517,5.059Z" transform="translate(-122.141 -88.908)"/><path class="e" d="M180.371,208.453l-1.722-3.675v43.454l8.993-6.247V207.838Z" transform="translate(-133.591 -110.314)"/><path class="e" d="M204.064,207.8v33.931l9.537,6.5v-43.64l-1.809,3.861Z" transform="translate(-133.373 -110.315)"/><path class="f" d="M203.26,207.694l-7.146,4.968-7.147-4.968-1.4.119V241.96l8.428-5.855,8.212,5.6V207.775Z" transform="translate(-133.515 -110.289)"/><path class="g" d="M222.973,174.381l.734-8.674-7.883-3.694-3.694-7.883-8.673.734L196.31,149.9l-7.147,4.968-8.674-.733-3.694,7.881-7.882,3.7.732,8.674-4.967,7.147,4.967,7.146-.732,8.674,7.882,3.694,1.973,4.208,1.722,3.675,7.271-.615,1.4-.119,7.147,4.968,7.146-4.968.945.081,7.729.655,1.808-3.861,1.886-4.023,7.883-3.694-.734-8.673,4.968-7.147ZM196.31,203.969a22.444,22.444,0,1,1,22.444-22.444A22.444,22.444,0,0,1,196.31,203.969Z" transform="translate(-133.71 -110.783)"/><ellipse class="h" cx="22.444" cy="22.444" rx="22.444" ry="22.444" transform="translate(40.155 48.297)"/></g><g transform="translate(214.771 135.888)"><path class="a" d="M377.383,191.5l-8.448-1.394a18.786,18.786,0,0,1-3.323,4.953c.468.684,1.012,1.476,1.606,2.336L375,195.8a11.619,11.619,0,0,1,1.125-2.431C376.58,192.642,377,192.042,377.383,191.5Z" transform="translate(-295.219 -164.835)"/><path class="a" d="M352.609,199.115l4.342-.881c-1.011-2.779-1.641-4.637-1.641-4.637l.069-.028a7.293,7.293,0,0,1,1.827-5.515l-3.116-.514Z" transform="translate(-291.499 -164.1)"/><path class="i" d="M352.028,197.592l-4.342.881.016.088-2.59.453-.031-.176,2.59-.454.015.089,1.48-11.576-9.706-1.6c-3.419,8.948-6.326,19.852-1.552,22.553,1.074.61,2.029,1.164,2.818,1.643.932.565,7.7.3,13.863-.1l-1.159-8.024C352.913,200,352.439,198.718,352.028,197.592Z" transform="translate(-286.577 -163.458)"/><path class="g" d="M284.759,154.825c-3.666-.595-8.247,1.126-9.7,4.408l-.44,2.68c.307,3.688,4.037,7.263,7.71,7.86l2.457.4,2.464-14.941Z" transform="translate(-269.192 -154.709)"/><path class="j" d="M474.824,177.221a6.292,6.292,0,0,0-1.753-2.068,7.293,7.293,0,0,0-3.027-1.313c-.664-.133-1.755-.319-3.192-.552-10.028-1.623-36.671-5.43-36.676-5.43l-.422,2.954,1.505.216c3.364.483,11.845,1.7,20.027,2.912,4.09.6,8.106,1.205,11.368,1.709s5.782.913,6.806,1.118a4.313,4.313,0,0,1,1.808.763,3.467,3.467,0,0,1,1.187,1.713c.034.1.057.2.083.3l3.111.488A7.578,7.578,0,0,0,474.824,177.221Z" transform="translate(-313.565 -158.47)"/><path class="k" d="M417.292,175.845c1.359,8.3-.953,13.322-2.055,14.544l.291.071s-.061.061-.168.166l4.66.821a10.719,10.719,0,0,1,4.322,1.378l7.639,1.26,2.5-15.406Z" transform="translate(-309.413 -160.755)"/><path class="k" d="M338.956,178.777a14.758,14.758,0,0,1,2.218-2.229c.433-.361.609-.883.735-2.2.044-.469.491-.692,1.114-.678l.044-.006c.034-.005.071-.007.106-.011.068-.268.36-.386.714-.338a1.092,1.092,0,0,1,.548.3l.156.007c.044-.3.353-.431.725-.38a1.3,1.3,0,0,1,.683.441.671.671,0,0,1,.678-.215,1.564,1.564,0,0,1,.8.581h-.019c1.324,1.763-.471,5.988-.471,5.988-.006.017-.015.034-.021.051l8.448,1.394a15.007,15.007,0,0,0,2.641-4.677c.352-1.11,1.436-9.809,1.517-10.455l-18.918-3.119a1.14,1.14,0,0,1-1.056,1.217.906.906,0,0,1-.793-.407l-.151.065-.005-.011c-.066.465-.658.754-1.212.69a1.626,1.626,0,0,1-1.2-1.1l-.074.031-.016-.036a1.258,1.258,0,0,1-2.233-.349l-.108.041-.084-.219a1.257,1.257,0,0,1-1.04.372,1.778,1.778,0,0,1-1.157-1.1h-.006l-.357-.763-1.611-.266-38.2-6.3-.039.236-2.464,14.941-.036.221,37.324,6.154,9.706,1.6Z" transform="translate(-273.251 -154.824)"/><path class="k" d="M351.9,166.154l-.007.011.007.019C351.9,166.174,351.9,166.164,351.9,166.154Z" transform="translate(-291.295 -157.983)"/><path class="l" d="M272.927,160.7c-1.9,0-3.8,0-4.464.037-2.874.149-.575,1.437-.575,1.437l4.528,1.634.03-.181.44-2.68Z" transform="translate(-267.017 -156.423)"/><path class="m" d="M381.146,182.722c-.386.539-.8,1.139-1.254,1.861a11.619,11.619,0,0,0-1.125,2.431l8.9-1.831,3.493-.158-.16.321h.009l0-.005.043-.008c1.327-1.115,1.509-3.047,1.43-4.468-3.368-.432-5.878-2.745-5.927-7.062l0-.433c-.014.006-.026.017-.041.023l.046-.818.028-4a7.052,7.052,0,0,1,1.376-4.139c1.435-.184,5.378-.384,7.277,2.575,2.393,3.728,3.086,8.79,4.032,11.738a14.568,14.568,0,0,0,5.051,7.233c.086.056.261-.052.476-.291,1.1-1.222,3.415-6.242,2.055-14.544,0-.024-.006-.046-.01-.069a23.382,23.382,0,0,0-.72-2.847c-.65-1.967-2.12-8.361-10.233-8.815,0,0-5.705-.19-7.8,3.466-1.008.089-3.02.752-2.785,4.668l0,.042c-.08.646-1.165,9.345-1.516,10.455A15.007,15.007,0,0,1,381.146,182.722Z" transform="translate(-298.981 -156.054)"/><path class="n" d="M360.655,207.8l1.159,8.024.163,1.133c.684-.075,1.449-.166,2.264-.268C362.948,213.707,361.707,210.574,360.655,207.8Z" transform="translate(-293.801 -169.896)"/><path class="o" d="M365.815,431.05l-3.7,5.912.027-.009s-.44.312,1,.339c2.443.045,7.966-4.5,8.05-4.569l-.723-1.479.372-4.629-.279-.24-4.939.016Z" transform="translate(-294.207 -232.415)"/><path class="m" d="M360.922,439.494l-.027.009c-.277.094-3.781,1.312-2.948,2.723.383.649,3.321.992,5.485.316,1.509-.471,4.131-3.2,4.131-3.2l.192,2.72,1.368.023a18.64,18.64,0,0,0,1.072-3.371,4.261,4.261,0,0,0-.211-3.458l-.008.006c-.084.069-5.607,4.614-8.05,4.569C360.482,439.806,360.922,439.494,360.922,439.494Z" transform="translate(-292.99 -234.955)"/><path class="o" d="M438.306,431.838l-3.51,5.482.05-.015s-.451.3.992.375c2.44.132,8.116-4.205,8.209-4.276l-.669-1.505-.269-5.23-6.192.054Z" transform="translate(-315.003 -232.499)"/><path class="m" d="M433.6,440l-.05.015c-.443.135-3.782,1.207-3.022,2.608.359.663,3.284,1.111,5.47.514,1.525-.416,4.244-3.048,4.244-3.048l.094,2.725,1.366.071a18.514,18.514,0,0,0,1.193-3.329,4.262,4.262,0,0,0-.086-3.463l-.008.007c-.093.071-5.77,4.408-8.209,4.276C433.147,440.3,433.6,440,433.6,440Z" transform="translate(-313.754 -235.194)"/><path class="p" d="M375.4,278.755a427.614,427.614,0,0,0-12.06,51.7,14.185,14.185,0,0,0-.938,8.888c-.005.57,0,1.119.01,1.611.109,4.3.316,32.826,1.259,43.221l1.948-.006,4.938-.016,3.785-.013c5.108-36.031,3.705-47.194,3.705-47.194s4.644-5.178,13.655-23.745l-.039.012-5.8-17.7.169-.056,5.754,17.563.031-.062c2.536,7.856,5.168,16.247,7.538,24.254l-.02,0s.086,5.558,2.756,9.072c2.906,9.271,9.385,29.577,12.751,38.139l1.269-.011,6.192-.054,3.5-.03c-3.8-28.867-8.637-44.916-8.637-44.916s-.663-13.731-1.471-28.241a68.044,68.044,0,0,0-.942-31.976Z" transform="translate(-294.199 -190.191)"/><path class="n" d="M401.808,196.187c-1.159,1.129-8.2,7.764-12.826,7.06-5.011-.765-1.158-7.529-1.093-7.642h-.009l.16-.321-3.493.158-8.9,1.831-7.786,1.6c2.8,4.05,6.684,9.588,8.637,12.314a13.9,13.9,0,0,1,1.686-3.325l.141.109s-.044.057-.123.174-.193.291-.33.522a15.5,15.5,0,0,0-1,2.05c-.082.2-.164.42-.246.644.662.922,1.076,1.483,1.1,1.481a90.31,90.31,0,0,0,9.919-1.594l3.124,12.428c-5.508.8-10.817,2.34-14.583,2.02.029,9.939.884,21.073.884,21.073l-1.466,8.091,1.459.016,39.357.442.251,0s.173-27.946.654-32.513c.042-.4.161-.783.233-1.165,2.265-15.213-2.759-21.033-6.765-23.26a10.719,10.719,0,0,0-4.322-1.378ZM387.867,211.31l-.174.041-.271-1.13.085-.022c3.511-.911,7.579-2.225,10.462-3.2h0l.057.169c-2.862.967-6.89,2.268-10.39,3.181Zm2.979,12.479.169.644a88.02,88.02,0,0,0,16.127-3.992l.06.168a88.183,88.183,0,0,1-16.24,4.013l-.079.011-.021-.077-.189-.722Z" transform="translate(-295.862 -166.316)"/><path class="o" d="M407.45,187.956a14.568,14.568,0,0,1-5.051-7.233c-.946-2.948-1.639-8.01-4.032-11.738-1.9-2.959-5.842-2.758-7.277-2.575a7.051,7.051,0,0,0-1.376,4.139l-.028,4,.07-1.242a1.132,1.132,0,0,1,.657.941,1.151,1.151,0,0,1-.733,1.1l0,.433c.049,4.317,2.559,6.63,5.927,7.062.079,1.421-.1,3.353-1.43,4.468l-.043.008,0,.005c-.065.114-3.918,6.877,1.093,7.642,4.626.7,11.667-5.931,12.826-7.06.108-.1.168-.166.168-.166l-.291-.071C407.711,187.9,407.536,188.012,407.45,187.956Zm-9.625-12.377a1.159,1.159,0,1,1,1.221-1.221A1.225,1.225,0,0,1,397.825,175.578Zm-7.051-2.962a.6.6,0,1,1,.573-.638A.6.6,0,0,1,390.774,172.616Zm.611,2.566.574-.743-.05-2.982h0l.285-.005.052,3.081-.031.04-.381.492.628.273-.114.262Zm1.853,2.731c-1,.054-1.208-1.155-1.208-1.155a2.1,2.1,0,0,0,2.232-.121A1.07,1.07,0,0,1,393.238,177.913Zm1.907-5.811a.605.605,0,1,1,.637.57A.607.607,0,0,1,395.145,172.1Zm.523,10.689h.1a4.825,4.825,0,0,0,4.078-2.208l.152.092a5,5,0,0,1-4.23,2.294h-.1Z" transform="translate(-302.102 -158.03)"/><path d="M398.159,188.686a5,5,0,0,0,4.23-2.294l-.152-.092a4.825,4.825,0,0,1-4.078,2.208h-.1l-.009.178Z" transform="translate(-304.498 -163.745)"/><path class="q" d="M390.893,173.447a.6.6,0,1,0,.638.57A.6.6,0,0,0,390.893,173.447Z" transform="translate(-302.286 -160.068)"/><path class="q" d="M398.543,174.1a.605.605,0,1,0-.572.638A.608.608,0,0,0,398.543,174.1Z" transform="translate(-304.292 -160.09)"/><path class="r" d="M393.148,177.4l-.628-.273.38-.492.031-.04-.052-3.081-.285,0h0l.05,2.981-.574.743.965.419Z" transform="translate(-302.786 -160.087)"/><path class="r" d="M392.972,180.891s.208,1.209,1.208,1.155a1.07,1.07,0,0,0,1.024-1.277A2.1,2.1,0,0,1,392.972,180.891Z" transform="translate(-303.044 -162.163)"/><path class="n" d="M401.77,177.144a1.293,1.293,0,1,0-1.221,1.221A1.223,1.223,0,0,0,401.77,177.144Z" transform="translate(-304.826 -160.817)"/><path class="n" d="M390.4,177.049a1.132,1.132,0,0,0-.657-.941l-.07,1.242-.046.818c.015-.006.026-.016.041-.023A1.151,1.151,0,0,0,390.4,177.049Z" transform="translate(-302.087 -160.83)"/><path d="M380.084,216.406c.081-.224.163-.441.246-.644a15.505,15.505,0,0,1,1-2.05c.136-.231.251-.406.33-.522s.123-.173.123-.173l-.141-.109a13.891,13.891,0,0,0-1.686,3.325Z" transform="translate(-299.322 -171.356)"/><path class="s" d="M484.853,183.667,478.07,182.6l-3.112-.488L446.2,177.6l-3.091,19.573-1.311-.192,3.094-19.586-3.49-.548-.344,2.119-2.5,15.406-.333,2.052,43.451,6.817a9.915,9.915,0,1,0,3.18-19.574Z" transform="translate(-315.987 -161.041)"/><path class="k" d="M443.231,197.193l1.311.192,3.091-19.573,0-.029-1.31-.193,0,.017Z" transform="translate(-317.42 -161.254)"/><path class="o" d="M347.837,164.058h.006a1.778,1.778,0,0,0,1.157,1.1,1.256,1.256,0,0,0,1.039-.372l-1.147-2.979.167-.064,1.112,2.887.007-.011c0,.01,0,.02,0,.029l.112.293-.059.022a1.258,1.258,0,0,0,2.233.349l-1.5-3.572.164-.069,1.514,3.609-.09.038a1.626,1.626,0,0,0,1.2,1.1c.554.064,1.146-.225,1.212-.69l-1.818-4.2.164-.071,1.823,4.213-.013.006a.907.907,0,0,0,.793.407,1.14,1.14,0,0,0,1.056-1.217,1.211,1.211,0,0,0-.023-.166,2.072,2.072,0,0,0-.154-.423c-.278-.812-1.079-2.945-1.906-3.155a15.879,15.879,0,0,0-7,.107,4.3,4.3,0,0,0-2.02,1.806l1.611.266Z" transform="translate(-289.571 -156.444)"/><path d="M356.235,161.723l-.164.071,1.818,4.2.005.012.151-.065.013-.006Z" transform="translate(-292.49 -156.715)"/><path d="M353.172,162.026l-.165.069,1.5,3.572.015.037.074-.031.09-.038Z" transform="translate(-291.613 -156.802)"/><path d="M351.389,165.031l-.007-.019-1.111-2.887-.167.064,1.147,2.98.084.219.108-.041.059-.023Z" transform="translate(-290.783 -156.83)"/><path d="M405.8,211.692h0c-2.882.974-6.95,2.288-10.462,3.2l-.085.022.271,1.13L395.7,216l-.231-.96c3.5-.912,7.528-2.214,10.39-3.181Z" transform="translate(-303.698 -171.008)"/><path d="M400.021,234.71l.079-.011a88.182,88.182,0,0,0,16.24-4.013l-.06-.168a88.019,88.019,0,0,1-16.127,3.992l-.169-.644-.173.046.189.722Z" transform="translate(-305.001 -176.393)"/><path class="o" d="M387.486,219.453l-3.124-12.428a90.309,90.309,0,0,1-9.919,1.594c-.024,0-.438-.559-1.1-1.481l-.125-.174c-1.953-2.726-5.837-8.264-8.637-12.314-.594-.86-1.139-1.652-1.606-2.336a18.79,18.79,0,0,0,3.323-4.953c.006-.017.015-.034.021-.051,0,0,1.795-4.225.47-5.988h.019a1.564,1.564,0,0,0-.8-.581.671.671,0,0,0-.678.215,1.3,1.3,0,0,0-.683-.441c-.373-.051-.681.08-.725.38l-.156-.007a1.092,1.092,0,0,0-.548-.3c-.354-.048-.646.07-.714.338-.035,0-.072.006-.106.011l-.044.006c-.623-.014-1.07.209-1.114.678-.126,1.312-.3,1.834-.735,2.2a14.759,14.759,0,0,0-2.218,2.229,7.292,7.292,0,0,0-1.827,5.515l-.069.028s.63,1.858,1.641,4.637c.41,1.126.885,2.407,1.4,3.773,1.052,2.772,2.293,5.9,3.586,8.889,2.1,4.832,4.327,9.26,6.107,11.072a5.758,5.758,0,0,0,3.774,1.517C376.67,221.793,381.978,220.248,387.486,219.453Zm-23.612-38.3c-.034-.078-.056-.116-.056-.116l.123-.069.044,0a3.978,3.978,0,0,1,.381,1.761,4.6,4.6,0,0,1-.171,1.237v0l-.391,1.079-.168-.061.388-1.07a4.394,4.394,0,0,0,.165-1.188A3.976,3.976,0,0,0,363.875,181.149Zm1.573-.173a6.112,6.112,0,0,1,.452,2.225,4.009,4.009,0,0,1-.175,1.208l-.39,1.247-.17-.053.39-1.247a3.848,3.848,0,0,0,.166-1.154,5.978,5.978,0,0,0-.369-1.982c-.041-.111-.067-.17-.067-.17Zm-3.028.516a4.787,4.787,0,0,0-.136-.5l.168-.06a5.82,5.82,0,0,1,.283,1.751,3.871,3.871,0,0,1-.182,1.214l0,.01-.558.9-.152-.094.545-.882a3.666,3.666,0,0,0,.171-1.15A5.6,5.6,0,0,0,362.42,181.493Z" transform="translate(-292.581 -162.088)"/><path d="M348.96,204.082l.031.176,2.59-.454-.015-.088-.015-.088Z" transform="translate(-290.456 -168.702)"/><path d="M395.407,302.2l5.8,17.7.038-.013.131-.043-.045-.136-5.754-17.563Z" transform="translate(-303.741 -196.881)"/><path d="M366.54,185.172l.168.061.391-1.079v0a4.6,4.6,0,0,0,.171-1.237,3.978,3.978,0,0,0-.381-1.761l-.044,0-.124.069s.021.038.056.116a3.976,3.976,0,0,1,.315,1.581,4.395,4.395,0,0,1-.165,1.188Z" transform="translate(-295.484 -162.272)"/><path d="M364.023,184.889l.152.094.558-.9,0-.01a3.872,3.872,0,0,0,.182-1.214,5.817,5.817,0,0,0-.283-1.751l-.168.06a4.787,4.787,0,0,1,.136.5,5.6,5.6,0,0,1,.137,1.193,3.668,3.668,0,0,1-.171,1.15Z" transform="translate(-294.764 -162.26)"/><path d="M368.8,181.238s.026.059.067.17a5.98,5.98,0,0,1,.369,1.982,3.849,3.849,0,0,1-.166,1.154l-.39,1.247.17.053.39-1.247a4.009,4.009,0,0,0,.175-1.208,6.114,6.114,0,0,0-.452-2.225Z" transform="translate(-296.096 -162.276)"/></g></g></g></svg>