<svg xmlns="http://www.w3.org/2000/svg" width="184.001" height="79.999" viewBox="0 0 184.001 79.999"><defs><style>.a{fill:#fff;}.b,.c{stroke:none;}.c{fill:#d8d8d8;}</style></defs><g class="a" transform="translate(1.809 1.198)"><path class="b" d="M 152.5500030517578 78.30130767822266 L 27.83249664306641 78.30130767822266 C 23.89808654785156 78.30130767822266 20.08165550231934 77.53089904785156 16.4892692565918 76.01148986816406 C 13.01915550231934 74.54380798339844 9.902609825134277 72.44255828857422 7.22617769241333 69.76612091064453 C 4.549746036529541 67.08969116210938 2.448496103286743 63.97314453125 0.9808142185211182 60.50303268432617 C -0.5385949015617371 56.91064453125 -1.309003949165344 53.09421539306641 -1.309003949165344 49.15980529785156 C -1.309003949165344 45.22560119628906 -0.5385949015617371 41.40935134887695 0.9808142185211182 37.81710052490234 C 2.448496103286743 34.34709930419922 4.549746036529541 31.23062324523926 7.22617769241333 28.55426025390625 C 9.902609825134277 25.87787246704102 13.01915550231934 23.77666854858398 16.4892692565918 22.30898666381836 C 20.08167839050293 20.78960037231445 23.89808654785156 20.01919174194336 27.83249664306641 20.01919174194336 L 77.96785736083984 20.01919174194336 L 78.27074432373047 20.01919174194336 L 78.41101837158203 19.75073623657227 L 88.67465209960938 0.1073505580425262 C 88.93838500976562 -0.3969449102878571 89.43553924560547 -0.6981267333030701 90.00449371337891 -0.6981267333030701 C 90.57344818115234 -0.6981267333030701 91.07061004638672 -0.3969449102878571 91.33442687988281 0.1075096428394318 L 101.5979995727539 19.75073623657227 L 101.7382659912109 20.01919174194336 L 102.0411529541016 20.01919174194336 L 152.5500030517578 20.01919174194336 C 156.4842071533203 20.01919174194336 160.3004760742188 20.78960037231445 163.8928527832031 22.30898666381836 C 167.3629302978516 23.77666854858398 170.4794921875 25.87789535522461 173.1559906005859 28.55426025390625 C 175.8324890136719 31.23066902160645 177.9338073730469 34.34712219238281 179.4015655517578 37.81710052490234 C 180.9210357666016 41.40939712524414 181.6914978027344 45.22562408447266 181.6914978027344 49.15980529785156 C 181.6914978027344 53.09419250488281 180.9210357666016 56.91059875488281 179.4015655517578 60.50303268432617 C 177.9338073730469 63.97312164306641 175.8324890136719 67.08966827392578 173.1559906005859 69.76612091064453 C 170.4795227050781 72.44255828857422 167.3629455566406 74.54378509521484 163.8928527832031 76.01148986816406 C 160.3004913330078 77.53089904785156 156.4842071533203 78.30130767822266 152.5500030517578 78.30130767822266 Z"/><path class="c" d="M 152.5500030517578 77.80129241943359 C 156.4169311523438 77.80129241943359 160.1676940917969 77.04417419433594 163.6980743408203 75.55097961425781 C 167.1085815429688 74.10848236083984 170.1717224121094 72.04322052001953 172.8024291992188 69.41255187988281 C 175.4331970214844 66.7818603515625 177.49853515625 63.71871948242188 178.9410552978516 60.30824279785156 C 180.4343414306641 56.77776718139648 181.1915130615234 53.02690887451172 181.1915130615234 49.1597900390625 C 181.1915130615234 45.29291152954102 180.4343414306641 41.54219436645508 178.9410858154297 38.01188659667969 C 177.49853515625 34.60150527954102 175.4331970214844 31.5384578704834 172.8024597167969 28.90783882141113 C 170.1717224121094 26.27721977233887 167.1085815429688 24.21198081970215 163.6980743408203 22.76950454711914 C 160.1676788330078 21.27631568908691 156.4169311523438 20.51919555664062 152.5500030517578 20.51919555664062 L 102.0411529541016 20.51919555664062 L 101.4353637695312 20.51919555664062 L 101.1548385620117 19.98229026794434 L 90.89136505126953 0.3392195999622345 C 90.71541595458984 0.00274341250769794 90.38388824462891 -0.1981137245893478 90.00450897216797 -0.1981137245893478 C 89.62512969970703 -0.1981137245893478 89.29360198974609 0.00274341250769794 89.11782073974609 0.3388862609863281 L 78.85417175292969 19.98229026794434 L 78.57365417480469 20.51919555664062 L 77.96786499023438 20.51919555664062 L 27.8325080871582 20.51919555664062 C 23.96538925170898 20.51919555664062 20.2144832611084 21.27631568908691 16.68405532836914 22.76950454711914 C 13.27355575561523 24.21195793151855 10.21041297912598 26.27719497680664 7.57972240447998 28.90781402587891 C 4.949055671691895 31.53843307495117 2.883817434310913 34.60148239135742 1.441317439079285 38.01186370849609 C -0.05187301337718964 41.54217147827148 -0.8089920878410339 45.29286193847656 -0.8089920878410339 49.1597900390625 C -0.8089920878410339 53.02693557739258 -0.05187301337718964 56.77781295776367 1.441317439079285 60.30824279785156 C 2.883817434310913 63.71876907348633 4.949079513549805 66.78188323974609 7.579746246337891 69.41255187988281 C 10.21041297912598 72.04322052001953 13.27353191375732 74.10848236083984 16.68405532836914 75.55097961425781 C 20.2144832611084 77.04417419433594 23.96536445617676 77.80129241943359 27.8325080871582 77.80129241943359 L 152.5500030517578 77.80129241943359 M 152.5500030517578 78.80129241943359 L 27.8325080871582 78.80129241943359 C 11.46150779724121 78.80129241943359 -1.808992028236389 65.53079223632812 -1.808992028236389 49.1597900390625 C -1.808992028236389 32.78969573974609 11.46150779724121 19.51919555664062 27.8325080871582 19.51919555664062 L 77.96786499023438 19.51919555664062 L 88.23150634765625 -0.1242089718580246 C 88.60590362548828 -0.840149462223053 89.30519866943359 -1.198119640350342 90.00450134277344 -1.198119640350342 C 90.70379638671875 -1.198119640350342 91.40310668945312 -0.840149462223053 91.77751159667969 -0.1242089718580246 L 102.0411529541016 19.51919555664062 L 152.5500030517578 19.51919555664062 C 168.9201049804688 19.51919555664062 182.1915130615234 32.78969573974609 182.1915130615234 49.1597900390625 C 182.1915130615234 65.53079223632812 168.9201049804688 78.80129241943359 152.5500030517578 78.80129241943359 Z"/></g></svg>