<svg xmlns="http://www.w3.org/2000/svg" xmlns:xlink="http://www.w3.org/1999/xlink" width="280" height="280" viewBox="0 0 280 280"><defs><style>.a{fill:none;}.b{fill:#dedede;}.c{fill:url(#a);}.d{opacity:0.17;}.e{fill:#002d91;}.f{fill:#ffc700;}.g{fill:#fff;}.h{fill:#f9a085;}.i{fill:#111;}.j{fill:#f4f4f4;}.k{fill:#e6f0f0;}.l{fill:#f0f5f5;}.m{opacity:0.4;mix-blend-mode:multiply;isolation:isolate;}.n{fill:url(#b);}.o{fill:#ededed;}.p{fill:#e3e9e9;}.q{fill:#1a1a1a;}</style><linearGradient id="a" x1="0.494" y1="-0.003" x2="0.508" y2="0.989" gradientUnits="objectBoundingBox"><stop offset="0" stop-color="#1167f1"/><stop offset="0.305" stop-color="#0f63ec"/><stop offset="0.62" stop-color="#0a59e0"/><stop offset="0.94" stop-color="#0149cb"/><stop offset="1" stop-color="#0046c7"/></linearGradient><linearGradient id="b" x1="0.5" y1="1" x2="0.5" gradientUnits="objectBoundingBox"><stop offset="0.1" stop-color="#fff"/><stop offset="0.14" stop-color="#ebeef6"/><stop offset="0.278" stop-color="#adbcdc"/><stop offset="0.415" stop-color="#7890c5"/><stop offset="0.548" stop-color="#4d6cb2"/><stop offset="0.675" stop-color="#2b51a3"/><stop offset="0.796" stop-color="#133d99"/><stop offset="0.907" stop-color="#053193"/><stop offset="1" stop-color="#002d91"/></linearGradient></defs><g transform="translate(-440 -337)"><rect class="a" width="280" height="280" transform="translate(440 337)"/><g transform="translate(201 -71.038)"><ellipse class="b" cx="119.406" cy="17.488" rx="119.406" ry="17.488" transform="translate(258 649.797)"/><path class="c" d="M669.634,665.987c-18.293-35.475-13.821-84.687,2.168-110.24s27.83-52.828,12.466-94.056c-15.854-42.543-84.959-65.377-134.146-39.28-37.358,19.82-41.512,57.624-38.443,77.295a30.837,30.837,0,0,1-2.959,16.917l-19.961,35.889a9.852,9.852,0,0,0,8.578,14.652h10.75a2.2,2.2,0,0,1,2.2,2.2v35.785a19.474,19.474,0,0,0,19.444,19.5h21.883A11.128,11.128,0,0,1,562.723,635.8v30.183Z" transform="translate(-212.446 0)"/><g class="d" transform="translate(302.088 541.842)"><path class="e" d="M684.152,1068.83c-7.688-6.9-19.554-4.511-25.441,3.937l-2.946,4.228-4.086-3.14c-8.165-6.274-20.2-4.968-25.441,3.937-14.794,25.132,23,45.578,37.609,51.43C676.005,1119.228,705.85,1088.314,684.152,1068.83Z" transform="translate(-622.866 -1064.8)"/></g><g transform="translate(300.645 539.57)"><path class="f" d="M676.927,1057.449c-7.688-6.9-19.554-4.511-25.44,3.937l-2.946,4.228-4.086-3.14c-8.164-6.274-20.2-4.968-25.44,3.937-14.794,25.131,23,45.578,37.609,51.43C668.781,1107.847,698.626,1076.933,676.927,1057.449Z" transform="translate(-615.641 -1053.419)"/><path class="g" d="M751.571,1151.564l-7.857,1.24-1.24-7.857a1.224,1.224,0,0,0-1.4-1.018l-6.648,1.049a1.224,1.224,0,0,0-1.018,1.4l1.24,7.857-7.857,1.24a1.224,1.224,0,0,0-1.018,1.4l1.05,6.648a1.224,1.224,0,0,0,1.4,1.018l7.857-1.24,1.24,7.857a1.224,1.224,0,0,0,1.4,1.018l6.648-1.05a1.224,1.224,0,0,0,1.018-1.4l-1.24-7.856,7.857-1.24a1.224,1.224,0,0,0,1.018-1.4l-1.049-6.648A1.224,1.224,0,0,0,751.571,1151.564Z" transform="translate(-703.768 -1125.841)"/></g><g transform="translate(306.703 581.076)"><g transform="translate(0)"><path class="h" d="M658.856,1268.372a5.2,5.2,0,0,1,1.193-2.712,1.415,1.415,0,0,0,.274-.395.406.406,0,0,0-.079-.447c-.255-.219-.645.107-.974.037-.263-.056-.4-.344-.469-.605a3.265,3.265,0,0,1,.122-1.984c.107-.274.248-.6.076-.84-.2-.277-.635-.181-.928-.006a3.015,3.015,0,0,0-1.424,2.181c-.2,1.6.9,3.129.763,4.732" transform="translate(-654.496 -1261.252)"/><path class="h" d="M796.246,1343.5l-.622-1.928a.585.585,0,0,1-.008-.495c.1-.154.312-.174.491-.216a1.751,1.751,0,0,0,1.14-.994,3.244,3.244,0,0,0,.243-1.531,3,3,0,0,1,.005-.694.752.752,0,0,1,.376-.555c.39-.186.822.137,1.131.438a2.676,2.676,0,0,1,.819,1.161,2.011,2.011,0,0,1-.363,1.565c-.3.461-.7.85-1.03,1.295a2.3,2.3,0,0,0-.533,1.528" transform="translate(-765.688 -1321.898)"/><path class="h" d="M710.33,1389.594c.65-1.857-.5-4.009.228-5.839a3.033,3.033,0,0,1,5.612-.067,6.08,6.08,0,0,1,.359,1.944,1.121,1.121,0,0,1-.157.829c-.125.144-.315.215-.449.351a1.542,1.542,0,0,0-.242,1.1,3.847,3.847,0,0,1-1.361,2.854,2.26,2.26,0,0,1-1.036.526,1.259,1.259,0,0,1-1.092-.3" transform="translate(-697.459 -1357.757)"/><path class="i" d="M772.527,1664.53l.208,4.094,6.648.012a2.4,2.4,0,0,0-2.089-2.05,4.325,4.325,0,0,1-2.889-2.237Z" transform="translate(-747.253 -1583.846)"/><path class="i" d="M646.543,1666.237l-.571,4.059,6.526,1.27a2.4,2.4,0,0,0-1.663-2.409,4.324,4.324,0,0,1-2.413-2.743Z" transform="translate(-645.972 -1585.357)"/><path class="e" d="M648.442,1598.072l-1.724,14.183,3.183.286,2.618-14.875Z" transform="translate(-646.569 -1530.481)"/><path class="e" d="M748.126,1596.741l4.74,13.454,2.856-.5-3.121-14.443Z" transform="translate(-727.725 -1528.552)"/><path class="j" d="M666.391,1323.334l9.171-3.6,2.9-13.092-2.4.146-3.134,10.07-7.98,2.263-7.588-1.657-7.473-11.69,1.136-12.825-2.875-.92-2.178,14.475,7.673,14.948-5.094,20.92-2.569,15.145s4.466,1.423,13.777.5,12.265-4.808,12.265-4.808l-8.315-18.905Z" transform="translate(-645.972 -1285.879)"/><path class="i" d="M685.7,1382.084a6.448,6.448,0,0,0-.911,3.891,16.143,16.143,0,0,1-.156,4.05,5.576,5.576,0,0,1-3.224,3.812,4.994,4.994,0,0,1-4.9-.66,4.528,4.528,0,0,1-1.542-4.642c.738-2.608,3.771-4.008,4.65-6.571.329-.959.324-2.007.649-2.968.952-2.815,4.05-3.622,6.6-2.541a1.911,1.911,0,0,1,1.36,2.131C688.06,1380.184,686.557,1380.893,685.7,1382.084Z" transform="translate(-669.057 -1353.079)"/></g></g><g transform="translate(379.004 603.263)"><rect class="h" width="2.195" height="2.195" transform="translate(19.14 8.244)"/><path class="h" d="M1096.6,1388.792a3.477,3.477,0,1,1-3.756-5.839,3,3,0,0,1,2.092-.35,3.37,3.37,0,0,1,2.186,1.888,7.736,7.736,0,0,1,.631,2.9" transform="translate(-1074.482 -1380.506)"/><path class="i" d="M1090.3,1376.3a.661.661,0,0,1,.484.124c.25.246.04.793.355.947.187.092.411-.049.615-.01a.525.525,0,0,1,.363.505,4.059,4.059,0,0,1-.078.665,3.289,3.289,0,0,0,.506,1.765,1.424,1.424,0,0,0,.676.774,1.159,1.159,0,0,0,1.053-.274,3.991,3.991,0,0,0,1.341-2.147,11.9,11.9,0,0,0,.318-2.552,1.559,1.559,0,0,0-1.887-1.97,2.166,2.166,0,0,0-1.237-1.474,3.963,3.963,0,0,0-1.953-.3,4.346,4.346,0,0,0-1.884.516,2.519,2.519,0,0,0-1.208,1.491,1.824,1.824,0,0,0,.49,1.809C1088.744,1376.526,1089.735,1376.31,1090.3,1376.3Z" transform="translate(-1071.787 -1372.348)"/><path class="h" d="M1009.4,1383.424a9.955,9.955,0,0,0-.978-1.547,2.013,2.013,0,0,1-.341-1.734,2.5,2.5,0,0,1,1.037-1.064c.223-.15.5-.307.744-.191a.679.679,0,0,1,.308.549,1.542,1.542,0,0,0,.133.629,1.968,1.968,0,0,1,.528.277.665.665,0,0,1,.266.512,1.619,1.619,0,0,1-.227.58,1.288,1.288,0,0,0,.065,1.162C1010.475,1382.921,1009.866,1383.1,1009.4,1383.424Z" transform="translate(-1007.999 -1377.549)"/><path class="k" d="M1128.887,1432.365l4.663,12.738-5.248,7.758-1.293-1.825,3.271-6.769-2.814-5.172Z" transform="translate(-1103.242 -1420.379)"/><path class="h" d="M1053.337,1663.609a7.173,7.173,0,0,0-2.079.114l.143,3.411-1.879.168c-1.86.2-2.109,1.482-2.109,1.482h5.656Z" transform="translate(-1039.542 -1605.42)"/><path class="h" d="M1110.3,1663.572a6.481,6.481,0,0,0-1.957.124l.468,3.2-1.836.378c-1.861.2-2.109,1.483-2.109,1.483h5.558Z" transform="translate(-1085.522 -1605.394)"/><path class="i" d="M1110.41,1682.392l.015.627h-5.558s.248-1.284,2.109-1.483l.807-.166A3.16,3.16,0,0,0,1110.41,1682.392Z" transform="translate(-1085.522 -1619.655)"/><path class="i" d="M1049.521,1681.94l.743-.066h0a3,3,0,0,0,2.849.683l-.045.866h-5.656S1047.661,1682.139,1049.521,1681.94Z" transform="translate(-1039.542 -1620.058)"/><path class="e" d="M1072.911,1512.045s-3.388,6.54-4.343,8.575c-.318,4.581-1.818,14.073-1.818,14.073H1063.8V1520l3.384-18.131H1077.7l.6,18.815-.428,13.931-2.882.161Z" transform="translate(-1052.657 -1476)"/><path class="l" d="M1013.414,1395.536l-2.914.936,3.877,8.426,9.281,1.765s.3,8.168-.56,12.081-3.531,15.714-3.435,21.63c4.39.668,17.368,0,17.368,0s-1.336-19.34-2-23.73c0-3.531,1.358-11.015,1-12.57s-1.187-3.653-4.687-3.4-14.661.7-14.661.7Z" transform="translate(-1010.001 -1390.905)"/></g><g class="m" transform="translate(412.756 493.949)"><path class="n" d="M1203.5,824.986l-1.526.291,0,9.876h-23.44l0-10.167-1.526.291.054,171.563h1.526l-.005-15.272h23.439l0,15.272h1.526Zm-24.962,11.664h23.44l.005,16.617h-23.44Zm.006,18.114h23.44l.005,16.617h-23.44Zm.005,18.115h23.44l.005,16.617h-23.44Zm.006,18.115h23.44l0,16.617h-23.439Zm.005,18.114H1202l.005,16.617h-23.439Zm.006,18.115H1202l.005,16.617H1178.57Zm.005,18.115h23.44l.005,16.616h-23.439Zm.011,34.731-.005-16.617h23.439l.005,16.617Z" transform="translate(-1177.007 -824.986)"/></g><path class="e" d="M829.284,570.784a23.591,23.591,0,0,0-5.872-15.609,2.958,2.958,0,0,1-.668-2.6,19.806,19.806,0,0,0,.483-4.355c0-10.3-7.683-18.98-19.166-19.685a3.057,3.057,0,0,1-2.717-2.108,18.671,18.671,0,0,0-24.662-11.408,2.969,2.969,0,0,1-3.484-.962,18.652,18.652,0,0,0-30.451.755,3.1,3.1,0,0,1-4.014,1.1,18.652,18.652,0,0,0-26.978,12.008,2.988,2.988,0,0,1-2.915,2.228,16.516,16.516,0,0,0-16.259,16.035,15.992,15.992,0,0,0,1.424,6.615,3.008,3.008,0,0,1-1.348,3.828,18.382,18.382,0,0,0-9.359,16.041c.014,10.243,8.659,18.394,18.9,18.394h30.756a4.049,4.049,0,0,1,3.811,2.829,16.063,16.063,0,0,0,26.1,6.713,1,1,0,0,1,1.58.295,26,26,0,0,0,49.164-6.33,2.972,2.972,0,0,1,1.7-2.184A23.684,23.684,0,0,0,829.284,570.784Z" transform="translate(-369.141 -76.194)"/><g transform="translate(412.756 493.949)"><path class="o" d="M1212.435,996.84l-3.018-15.272h23.439l3.018,15.272h1.526l-33.959-171.853-1.469.291,1.952,9.876h-23.44l-2.009-10.167-1.469.291,33.9,171.563ZM1180.781,836.65h23.439l3.284,16.617h-23.439Zm3.579,18.114h23.44l3.284,16.617h-23.44Zm3.58,18.115h23.439l3.284,16.617h-23.439Zm3.58,18.115h23.439l3.283,16.617H1194.8Zm3.579,18.114h23.439l3.284,16.617h-23.439Zm3.579,18.115h23.439l3.283,16.617h-23.439Zm3.579,18.115h23.44l3.283,16.617h-23.439Zm3.58,18.115h23.439l3.284,16.617h-23.439Z" transform="translate(-1177.007 -824.986)"/><path class="p" d="M1313.231,851.027l1.861,12.644h4.374l-4.23-12.644Z" transform="translate(-1286.026 -845.826)"/><g transform="translate(4.601 1.226)"><path class="h" d="M1202.92,850.267a9.91,9.91,0,0,0-1.648-.8,2.012,2.012,0,0,1-1.205-1.292,2.492,2.492,0,0,1,.318-1.451c.109-.245.264-.526.531-.556a.678.678,0,0,1,.551.3,1.545,1.545,0,0,0,.446.464,1.966,1.966,0,0,1,.594-.044.665.665,0,0,1,.5.294,1.616,1.616,0,0,1,.113.612,1.289,1.289,0,0,0,.669.953C1203.565,849.274,1203.142,849.746,1202.92,850.267Z" transform="translate(-1200.043 -843.165)"/><path class="h" d="M1267.956,1123.634a7.172,7.172,0,0,0-2.079.114l.143,3.411-1.879.167c-1.86.2-2.108,1.482-2.108,1.482h5.656Z" transform="translate(-1249.652 -1065.195)"/><path class="h" d="M1324.922,1123.6a6.479,6.479,0,0,0-1.957.124l.467,3.2-1.836.378c-1.861.2-2.109,1.483-2.109,1.483h5.558Z" transform="translate(-1295.632 -1065.169)"/><path class="q" d="M1325.029,1142.417l.015.627h-5.558s.248-1.284,2.109-1.483l.808-.167A3.161,3.161,0,0,0,1325.029,1142.417Z" transform="translate(-1295.632 -1079.431)"/><path class="q" d="M1264.14,1141.964l.743-.067h0a3,3,0,0,0,2.849.683l-.045.866h-5.656S1262.28,1142.163,1264.14,1141.964Z" transform="translate(-1249.652 -1079.833)"/><path class="e" d="M1287.53,972.069s-3.388,6.539-4.343,8.575c-.318,4.58-1.819,14.073-1.819,14.073h-2.948v-14.7l3.384-18.131h10.516l.6,18.815-.428,13.931-2.883.161Z" transform="translate(-1262.768 -935.775)"/><path class="l" d="M1211.928,856.429l-1.836,2.076,7.061,7.053,9.333,2.135s.064,7.857-.8,11.769-3.531,15.714-3.435,21.63c4.39.668,17.368,0,17.368,0s-1.336-19.34-2-23.73c0-3.531,1.357-11.016,1-12.569s-1.188-3.653-4.687-3.4-14.9.274-14.9.274Z" transform="translate(-1208.085 -851.376)"/><rect class="h" width="2.195" height="2.195" transform="translate(23.649 8.493)"/><path class="h" d="M1311.218,848.816a3.477,3.477,0,1,1-3.756-5.839,3,3,0,0,1,2.092-.349,3.371,3.371,0,0,1,2.186,1.888,7.732,7.732,0,0,1,.631,2.9" transform="translate(-1284.593 -840.281)"/><path class="i" d="M1306.552,837.589a3.729,3.729,0,0,0,.222,1.158c.281.789,1.39,1.1,2.226,1.057a2.04,2.04,0,0,0,1.528-.971,4.971,4.971,0,0,0,.635-1.756,4.211,4.211,0,0,0,.065-1.9,1.685,1.685,0,0,0-1.266-1.292,1.405,1.405,0,0,0-.169-1.636,2.616,2.616,0,0,0-1.535-.8c-.918-.179-2.951-.583-3.739-.079s-2.2.859-1.427,3.061C1303.591,835.851,1306.45,835.186,1306.552,837.589Z" transform="translate(-1282.334 -831.126)"/></g></g></g></g></svg>